<?xml version="1.0" encoding="UTF-8"?>
<svg version="1.1" xmlns="http://www.w3.org/2000/svg" width="1384" height="1228">
<path d="M0 0 C456.72 0 913.44 0 1384 0 C1384 405.24 1384 810.48 1384 1228 C927.28 1228 470.56 1228 0 1228 C0 822.76 0 417.52 0 0 Z " fill="#FEFEFE" transform="translate(0,0)"/>
<path d="M0 0 C44.61207876 -1.32657062 103.29415098 0.46495114 138 32 C138.63164063 32.55042969 139.26328125 33.10085937 139.9140625 33.66796875 C152.15200542 44.98387488 160.89225528 62.00141531 165 78 C165.391875 78.99 165.78375 79.98 166.1875 81 C167.73457174 86.71226488 167.75975768 92.03153693 165.625 97.5625 C164 100 164 100 162 101 C154.07814642 101.91004344 147.08304822 100.17438073 139.578125 97.875 C135.8720351 96.96870727 132.79919344 96.70775435 129 97 C126.37022724 99.09033219 125.27585873 100.67796006 124.5859375 103.984375 C124.15058081 110.44598483 126.36164559 115.73196601 130 121 C134.57538919 125.34661973 139.46039677 126.09367362 145.5625 126.375 C161.13252887 127.46763361 161.13252887 127.46763361 166.5 133.3125 C171.20492006 139.17997298 171.38539615 145.74011207 171.375 152.9375 C171.37628906 153.8653833 171.37757813 154.7932666 171.37890625 155.74926758 C171.27010283 162.91236557 170.00873216 168.90642813 167.90234375 175.7578125 C166.26807262 181.62986896 166.16654469 186.63123227 168.1875 192.375 C172.8237453 199.08956215 180.88647342 202.97880576 188.75 204.68359375 C202.11067056 206.56243805 214.88337685 203.68090305 226 196 C232.51419313 190.21699181 234.9535584 183.27262961 236.32836914 174.88256836 C238.84776982 159.52545721 245.10445169 149.08677316 257 139 C260.22283556 136.74762613 263.50158452 134.78974197 267 133 C267.67289063 132.62746094 268.34578125 132.25492188 269.0390625 131.87109375 C272.28338307 130.42989159 275.55651397 130.43291798 279 131 C282.44312714 133.1244827 283.71617547 134.14852641 285 138 C285.18777728 139.38526774 285.33919572 140.77569019 285.46484375 142.16796875 C285.58182617 143.38516602 285.58182617 143.38516602 285.70117188 144.62695312 C285.85690365 146.3142619 286.01059907 148.00176005 286.16210938 149.68945312 C287.05814694 158.93393822 288.63362628 166.87183797 295 174 C300.37401494 178.16183112 306.34219494 180.05475607 313 181 C314.21171875 181.185625 315.4234375 181.37125 316.671875 181.5625 C321.2197949 182.05805871 325.73028258 182.00991316 330.296875 181.921875 C331.05709961 181.90932678 331.81732422 181.89677856 332.60058594 181.8838501 C335.7785696 181.82967992 338.95578853 181.77408674 342.1328125 181.67773438 C354.59858457 181.31774921 365.28395059 182.11237394 375.4375 190.3125 C382.86870813 197.55557628 388.02456846 204.91404729 388.375 215.5 C388.11624303 222.70538647 386.76502647 227.65759735 381.5 232.75 C376.75226648 236.54818682 371.80508838 238.36519024 366 240 C365.04222656 240.2990625 364.08445312 240.598125 363.09765625 240.90625 C355.00346577 243.06736884 347.09401991 243.31175667 338.75 243.375 C337.64906006 243.38885742 336.54812012 243.40271484 335.41381836 243.41699219 C325.94874275 243.36282051 317.75541732 242.18104172 310.47265625 235.79296875 C305.33137505 229.5334248 305.56640579 223.49939927 305.56054688 215.8125 C305.47518473 210.83927753 305.47518473 210.83927753 303.27734375 206.4765625 C289.57298303 197.59105933 259.36301563 204.88065415 244.49609375 207.84375 C240.61147182 208.75316704 236.80215435 209.79912698 233 211 C231.83742676 211.36351562 231.83742676 211.36351562 230.65136719 211.734375 C212.69310707 217.45187022 187.18324041 225.73035857 177.27734375 243.00390625 C171.91967851 253.5292486 170.28527557 261.96354006 173.625 273.5625 C178.57402517 288.01296373 186.36812645 298.62107541 199.546875 306.48046875 C205.94382463 310.44291048 209.58325934 315.99944131 212 323 C213.69045765 336.61263263 209.81155377 350.15011139 202.10546875 361.39453125 C198.81184942 365.47030879 195.15380118 369.0830135 191.35546875 372.6875 C188.38625975 375.60254432 187.08984474 377.19139735 186.625 381.375 C187.07354231 385.71090904 188.03373931 386.87736313 191 390 C203.31248838 397.90695182 217.13708347 401.3608365 231.66015625 401.62890625 C236.32458754 402.14717639 239.68052534 403.68052534 243 407 C243.42571747 411.17203121 242.97963488 414.33063182 241.5 418.1875 C238.73590779 426.19662571 238.77770036 433.08526218 242.46289062 440.73657227 C243.87713254 443.48215914 245.35011215 446.1914759 246.84912109 448.89160156 C248.7737565 452.41751403 250.53445168 456.02361344 252.3125 459.625 C252.95366368 460.90923558 253.59555422 462.19310862 254.23828125 463.4765625 C255.37401354 465.74802708 256.48899814 468.03004312 257.578125 470.32421875 C259.90311539 474.69954408 262.99366425 476.29808374 267.6015625 477.91015625 C282.72164155 482.19883303 295.78863448 480.30205553 309.5 473.0859375 C312.97912013 471.127505 315.87717414 468.70225222 318.875 466.0625 C324.28187808 461.39509201 324.28187808 461.39509201 328.375 461.25 C332.97446132 462.20161269 335.87397346 463.50706594 338.73828125 467.3046875 C339.25777344 468.15289063 339.77726562 469.00109375 340.3125 469.875 C343.8728294 475.19994681 347.77926398 478.69937558 353.96484375 480.60546875 C360.42418677 481.85766385 366.46768888 480.99955402 372.8125 479.5 C379.39871078 477.99396274 386.27691757 476.73880138 393 478 C395.22724037 479.75097514 395.85808715 481.13245938 396.31274414 483.91186523 C396.65178312 490.30547506 394.66433986 495.35217547 392.125 501.125 C387.35916415 512.29019142 383.6626747 522.61312685 387.0625 534.8125 C390.07652982 539.77106519 393.8717751 543.91723233 398.01171875 547.96875 C398.96498047 548.94328125 398.96498047 548.94328125 399.9375 549.9375 C400.81728516 550.78634766 400.81728516 550.78634766 401.71484375 551.65234375 C403.77498128 555.41569528 403.61252374 558.80978991 403 563 C401.8506349 566.76655561 400.31637447 570.32784242 398.75 573.9375 C389.88484117 595.63194123 386.66702383 617.03582964 393 640 C400.51317442 667.51446307 392.36195898 700.26668345 378.875 725.125 C375.90349958 730.68418204 374.62386526 736.94803156 373 743 C372.49533203 744.59908203 372.49533203 744.59908203 371.98046875 746.23046875 C370.68936739 751.19426483 370.07127991 756.16634736 369.4375 761.25 C369.18882734 763.2138764 368.93763783 765.17743621 368.68359375 767.140625 C368.52201782 768.43274902 368.52201782 768.43274902 368.35717773 769.75097656 C368 772 368 772 367 775 C366.10129312 789.49717333 367.42864036 801.40099469 377 813 C381.68182199 817.72624155 384.98117971 820.75255571 391.8125 821.3125 C398.29378334 821.15930603 401.69869845 817.4905434 406 813.0625 C410.50299951 807.95303591 414.15497916 802.38271309 417.875 796.6875 C429.24824356 779.29070613 441.43302718 765.75116835 460 756 C460.73476562 755.57589844 461.46953125 755.15179687 462.2265625 754.71484375 C464 754 464 754 467 755 C439.89380258 811.16897767 403.24965416 860.60609275 359.39489746 904.78033447 C358.35746905 905.8258059 357.32152517 906.87275299 356.28723145 907.92132568 C350.29469851 913.98787971 344.16430941 919.70576708 337.46704102 925.0065918 C334.92576046 927.05998672 332.5223379 929.21861888 330.125 931.4375 C324.9198758 936.16794306 319.41117449 940.42875519 313.79345703 944.64794922 C311.93630725 946.04801667 310.09072723 947.46239823 308.24609375 948.87890625 C298.44886182 956.36606178 288.36642599 963.32552145 278 970 C277.21592773 970.50611816 276.43185547 971.01223633 275.62402344 971.53369141 C239.50887351 994.7067267 201.30762323 1012.82589289 160.82397461 1026.9987793 C158.01214038 1027.99569571 155.21766208 1029.03327874 152.421875 1030.07421875 C147.20145371 1031.97695865 141.93129848 1033.51482983 136.5625 1034.9375 C135.61076904 1035.19200928 134.65903809 1035.44651855 133.6784668 1035.70874023 C131.72327822 1036.22903214 129.76730646 1036.74639022 127.81054688 1037.26074219 C126.03208845 1037.7285299 124.2546068 1038.20006099 122.47851562 1038.67675781 C102.90570552 1043.92430942 82.98039615 1047.33901902 62.95855713 1050.36328125 C61.57146442 1050.57283833 60.18467953 1050.78444776 58.79827881 1050.99853516 C37.47281764 1054.26931546 16.18267918 1055.36008108 -5.375 1055.25 C-7.07011215 1055.24435028 -7.07011215 1055.24435028 -8.79946899 1055.23858643 C-60.03203638 1055.03961801 -110.96969191 1049.62229046 -160 1034 C-160.6380658 1033.79677124 -161.27613159 1033.59354248 -161.93353271 1033.38415527 C-180.90827567 1027.32534601 -199.79743322 1021.13704097 -218 1013 C-219.71147217 1012.23864746 -219.71147217 1012.23864746 -221.45751953 1011.46191406 C-237.63287053 1004.23350972 -253.25484004 996.39819252 -268.54736328 987.42382812 C-271.45803562 985.73409678 -274.40512185 984.11916168 -277.35961914 982.5078125 C-286.95786001 977.24731894 -295.99628852 971.21221028 -305 965 C-305.73959961 964.49001465 -306.47919922 963.9800293 -307.24121094 963.45458984 C-323.11957773 952.46268041 -338.23698601 940.65133735 -352.9375 928.125 C-353.72435181 927.45718506 -353.72435181 927.45718506 -354.52709961 926.77587891 C-364.79352921 917.9760821 -374.5170083 908.64804663 -384.05639648 899.07397461 C-385.82487219 897.30008997 -387.59870044 895.53168223 -389.37304688 893.76367188 C-395.12993796 888.01045087 -400.73872135 882.21581621 -406 876 C-407.02086697 874.84277935 -408.04429579 873.68781349 -409.0703125 872.53515625 C-454.03194783 821.58884151 -487.00642254 761.43973502 -509.70068359 697.65185547 C-510.74280521 694.72287104 -511.79983777 691.80016531 -512.86328125 688.87890625 C-524.7126884 655.62289017 -530.85384804 619.91833778 -535 585 C-535.08720306 584.35712036 -535.17440613 583.71424072 -535.26425171 583.05187988 C-537.52926228 566.32771739 -537.34081935 549.50971031 -537.31567383 532.66845703 C-537.31106346 529.32391841 -537.31789722 525.97974526 -537.33618164 522.63525391 C-537.45214838 501.20777151 -536.7223618 480.27755916 -534 459 C-533.83943619 457.71331421 -533.83943619 457.71331421 -533.67562866 456.40063477 C-533.09509001 451.81513258 -532.42465139 447.25090736 -531.6875 442.6875 C-531.58428436 442.0370874 -531.48106873 441.3866748 -531.37472534 440.71655273 C-529.44503183 428.62722179 -526.81473623 416.77674499 -523.74414062 404.9296875 C-523.01389255 402.05469507 -522.33524088 399.17233713 -521.671875 396.28125 C-505.78091234 327.94256829 -472.47164172 263.48097342 -430 208 C-426.19693754 208.49513556 -424.26818276 208.80177796 -421.125 211.125 C-419 214 -419 214 -418.375 217.0625 C-419.64236984 225.04693002 -423.4041536 231.98132955 -427.26757812 238.99658203 C-432.39953769 248.3330644 -436.15168695 257.73123932 -439 268 C-439.19505127 268.65548828 -439.39010254 269.31097656 -439.59106445 269.98632812 C-441.37207275 276.71475753 -441.33782262 283.51385553 -441.31567383 290.42919922 C-441.31250567 292.49630141 -441.33607386 294.56197911 -441.36132812 296.62890625 C-441.39490083 304.00559383 -440.87079283 310.15251526 -438 317 C-433.21629239 316.71297754 -429.92897677 315.95928486 -426.33984375 312.63671875 C-423.23672617 308.84602993 -421.71408844 304.145682 -420.18359375 299.546875 C-417.46842593 291.80316768 -412.74037294 286.74037294 -407 281 C-405.33382885 280.95936168 -403.66611905 280.957279 -402 281 C-402.55325061 286.29955846 -403.54498765 291.00135614 -405.0625 296.125 C-409.97082405 315.20828229 -408.65026671 336.55514089 -402 355 C-401.70528809 355.85916016 -401.41057617 356.71832031 -401.10693359 357.60351562 C-393.63526915 379.28416441 -383.61143834 400.3405463 -362.14941406 411.04589844 C-360.75549117 411.72492218 -359.36029931 412.40134696 -357.96386719 413.07519531 C-344.21390115 419.71333371 -332.30562813 428.36440938 -323.03515625 440.56640625 C-319.26781144 445.07131185 -314.67228858 448.48225377 -310 452 C-309.47132324 452.40750488 -308.94264648 452.81500977 -308.39794922 453.23486328 C-295.79194984 462.91946049 -282.43493346 469.50617431 -267.38208008 474.56713867 C-261.27217896 476.67165296 -256.98984984 478.88482652 -253.71875 484.69140625 C-251.68378347 489.12340744 -251.38167752 493.11097157 -251.5 497.9375 C-251.51208496 498.72946777 -251.52416992 499.52143555 -251.53662109 500.33740234 C-251.74172978 506.37008392 -252.76175237 510.86149649 -256 516 C-256.38784668 516.63276855 -256.77569336 517.26553711 -257.17529297 517.91748047 C-261.84999769 524.83853941 -268.01011356 527.72061553 -275.30078125 531.421875 C-283.09411538 535.56940046 -287.72319349 540.08143493 -290.84765625 548.42578125 C-292.18854479 553.02578755 -292.49944468 557.41478651 -292.4375 562.1875 C-292.43065186 563.01048584 -292.42380371 563.83347168 -292.41674805 564.68139648 C-292.06048036 578.42105333 -287.39417397 592.16404217 -277.84765625 602.2578125 C-272.29117662 607.49711465 -266.69363071 609.47010333 -259.4375 611.4375 C-251.77518453 613.52572761 -246.7434433 615.65177554 -242.390625 622.55078125 C-240.54227578 627.13531035 -240.38971613 631.35024643 -240.125 636.25 C-238.86685206 654.05264941 -235.66733947 672.04481909 -230 689 C-229.72929687 689.89203125 -229.45859375 690.7840625 -229.1796875 691.703125 C-226.06675256 700.84561861 -219.40727744 708.29745704 -211 713 C-207.77120777 714.00078272 -204.49402401 714.68225129 -201.1875 715.375 C-191.59555589 717.57892936 -183.56609192 720.31689661 -178 729 C-176.39591315 732.47183284 -175.74597753 735.20423113 -175.7253418 739.02026367 C-175.71580978 739.99706589 -175.70627777 740.9738681 -175.69645691 741.98027039 C-175.69782402 743.55818108 -175.69782402 743.55818108 -175.69921875 745.16796875 C-175.69493362 746.27562088 -175.6906485 747.38327301 -175.68623352 748.52449036 C-175.6804878 750.88065918 -175.67999173 753.23684574 -175.68432617 755.59301758 C-175.68742456 759.1020601 -175.66424828 762.61020627 -175.63867188 766.11914062 C-175.60121547 780.01988012 -176.48667347 793.52912342 -178.32421875 807.30761719 C-180.6936483 825.64213367 -177.95400629 840.05781937 -169.765625 856.5234375 C-159.70051822 876.84885796 -152.6687483 897.81980947 -148 920 C-147.72800781 921.21558594 -147.45601562 922.43117188 -147.17578125 923.68359375 C-145.90321152 929.6155193 -144.90901715 935.53203181 -144.0703125 941.5390625 C-143.90345947 942.7235498 -143.73660645 943.90803711 -143.56469727 945.12841797 C-143.23824751 947.48260156 -142.92300224 949.83837558 -142.62084961 952.19580078 C-141.4805824 960.49008149 -140.26896 969.18895116 -134.66796875 975.71875 C-125.06650479 982.61365955 -117.99443281 985.2138944 -106 984 C-97.0458728 980.58115143 -92.86301066 969.14044349 -89.125 960.875 C-81.5078384 943.54474206 -75.09231007 925.36898549 -70.4921875 907.0078125 C-67.22994158 894.13850501 -63.76402094 882.46238279 -57 871 C-56.44699219 870.06027344 -55.89398437 869.12054687 -55.32421875 868.15234375 C-52.81897306 864.09253033 -50.13439136 860.17820235 -47.36328125 856.296875 C-37.74311728 842.75480973 -29.39683728 828.69155292 -28.75 811.625 C-28.10888206 802.77757247 -22.96588623 792.519231 -16.33203125 786.57421875 C-11.19298243 783.10514559 -5.51865304 780.56333689 0.07421875 777.91699219 C21.00657167 767.94971055 39.23135155 752.59683126 49.4375 731.5625 C49.75541504 730.91990234 50.07333008 730.27730469 50.40087891 729.61523438 C56.5993622 716.05125909 56.30575491 702.39729817 55.86303711 687.86889648 C55.59010767 678.11876122 55.58724819 669.96910504 60 661 C60.36875244 660.2172168 60.73750488 659.43443359 61.11743164 658.62792969 C63.45694162 653.83213263 66.65181987 649.95107769 70.125 645.9375 C78.79605869 635.90355343 79.91148865 624.9854107 79 612 C76.45494869 596.71348162 69.48014585 582.3966605 59 571 C58.30132813 570.22140625 57.60265625 569.4428125 56.8828125 568.640625 C51.5358492 562.97017993 45.7573524 558.8461963 39 555 C38.20980469 554.53722656 37.41960938 554.07445312 36.60546875 553.59765625 C25.96318279 547.79116855 13.09600867 544.70522815 1.01171875 545.078125 C-0.33980082 545.10995158 -1.69136741 545.13982806 -3.04296875 545.16796875 C-3.74083496 545.18263184 -4.43870117 545.19729492 -5.15771484 545.21240234 C-17.76723585 545.43241891 -29.31828878 545.25510513 -41 540 C-41.70560059 539.68933594 -42.41120117 539.37867188 -43.13818359 539.05859375 C-62.22736355 530.48296567 -62.22736355 530.48296567 -66.36328125 521.1640625 C-67.85244703 516.10272604 -67.00232702 511.94802539 -64.6171875 507.3125 C-63.57151819 505.57476937 -62.49252949 503.85647495 -61.375 502.1640625 C-58.79772612 498.10778486 -58.38084269 494.72107449 -59 490 C-65.10824048 478.30284312 -82.04408497 471.28069658 -93.37817383 465.77734375 C-111.30369171 457.05136234 -111.30369171 457.05136234 -116 448 C-116.85394705 445.46177028 -117.55322468 442.90941356 -118.25 440.32421875 C-120.08304118 434.64370051 -123.80082363 431.90643528 -128.875 429.25 C-145.13498868 421.40756173 -166.86307141 423.0213885 -183.71875 428.4296875 C-189.44440144 430.45403963 -194.997598 432.85235046 -200.484375 435.44921875 C-207.66769397 438.61786056 -215.50635294 440.88631421 -223.20703125 438.2421875 C-226.41874479 436.68238781 -229.13745854 434.89690609 -232 432.75 C-235.75239734 430.56110155 -238.79170009 430.37620126 -243 431 C-245.95186648 432.12378932 -248.59579976 433.64902044 -251.3125 435.25 C-252.81126964 436.08140462 -254.31257507 436.90825476 -255.81640625 437.73046875 C-256.53586426 438.12540527 -257.25532227 438.5203418 -257.99658203 438.92724609 C-267.20999856 443.86067922 -276.35523967 445.77269805 -286.6953125 443.375 C-293.48714585 440.99040647 -298.66963396 436.72912947 -304 432 C-304.66257812 431.45472656 -305.32515625 430.90945313 -306.0078125 430.34765625 C-313.91494911 423.3476154 -316.10600698 412.95483023 -318.91455078 403.14770508 C-320.82547176 396.49761208 -322.87378062 389.89685705 -325 383.3125 C-325.32009033 382.28479492 -325.64018066 381.25708984 -325.9699707 380.19824219 C-328.16481948 373.48354461 -330.24571393 368.52421282 -336.2890625 364.4609375 C-337.05992187 364.10257812 -337.83078125 363.74421875 -338.625 363.375 C-339.48738281 362.97152344 -340.34976563 362.56804687 -341.23828125 362.15234375 C-344.06652636 360.97224148 -346.91746693 359.9415803 -349.8125 358.9375 C-355.70168127 356.83066614 -359.30354707 354.73825357 -362.3125 349.125 C-365.91391919 340.18760053 -364.92511311 330.27198039 -361.26171875 321.53125 C-357.14374183 313.26979784 -352.15713069 307.72804628 -344.73046875 302.359375 C-335.43348618 295.5138356 -332.3936802 287.79730566 -328.53515625 277.18359375 C-321.39553158 257.59609013 -321.39553158 257.59609013 -315 252 C-307.1844781 251.1458446 -301.34617333 255.40796424 -295.3828125 260.02734375 C-289.28143519 265.58700999 -285.82166733 271.67999238 -282.1809082 278.94580078 C-276.96398623 289.25490982 -269.39395732 294.81044978 -258.8125 299.375 C-254.8173246 300.26281676 -250.75081266 300.87540633 -247 299 C-246.80309417 293.41279696 -247.34643625 289.14704834 -249 283.75 C-251.64875016 274.19435337 -251.553846 264.83839828 -251 255 C-250.94070313 253.88625 -250.88140625 252.7725 -250.8203125 251.625 C-248.68711861 232.47828412 -233.85973996 215.24942905 -221 202 C-220.23171875 201.2059375 -219.4634375 200.411875 -218.671875 199.59375 C-201.31801172 182.74730962 -181.71648686 176.01059643 -157.82958984 174.76953125 C-147.54562975 174.2779898 -147.54562975 174.2779898 -139.03515625 168.99609375 C-137.4482305 164.40299168 -137.50416047 159.89062244 -137.4375 155.0625 C-137.25179092 144.64215731 -135.80055465 137.21993646 -129 129 C-124.64099845 125.25085876 -120.64827738 124.6418452 -115 125 C-112.3706292 125.7153636 -109.87418696 126.47790752 -107.3125 127.375 C-96.4963806 130.93582638 -83.20097094 134.73365698 -72 131 C-70.08185423 127.16370846 -70.43216478 122.87454038 -71.6484375 118.859375 C-78.38527407 102.85219068 -89.49694607 90.78498679 -105 83 C-105.65871094 82.66355469 -106.31742188 82.32710938 -106.99609375 81.98046875 C-118.57384237 76.55256351 -134.36593898 75.81823576 -146.5 79.625 C-159.7052081 84.881263 -170.92850563 91.69685309 -177 105 C-177.52289497 106.90520147 -178.0028228 108.82275649 -178.4375 110.75 C-179.59643527 115.54162128 -181.12726153 118.03746843 -185.13671875 120.91796875 C-194.96584732 126.62586941 -207.69012398 124.60863665 -218.22802734 121.83862305 C-227.52640982 119.15451875 -236.00118602 114.7909125 -242 107 C-243.53930931 102.38207207 -243.95511496 98.40759392 -242.15234375 93.86328125 C-234.66433542 81.10847807 -220.05724621 73.74178579 -207 68 C-206.21496094 67.65324219 -205.42992187 67.30648437 -204.62109375 66.94921875 C-202.42862388 66.11256195 -200.28637218 65.53312904 -198 65 C-196.91847656 64.73574219 -195.83695312 64.47148437 -194.72265625 64.19921875 C-186.97651849 62.536743 -179.32824295 61.9035754 -171.421875 61.765625 C-170.64959061 61.75121368 -169.87730621 61.73680237 -169.08161926 61.72195435 C-165.18129556 61.65650636 -161.28436659 61.62554196 -157.38354492 61.64208984 C-130.23369753 61.52946318 -108.52721329 47.80341215 -88.88061523 30.11035156 C-82.96266232 24.84876473 -77.6202853 21.13186515 -69.4140625 21.578125 C-63.86125044 22.54851934 -61.25530585 25.37534455 -57.96875 29.62890625 C-52.85221274 37.25598325 -50.26559655 44.72062127 -48.0078125 53.54296875 C-47.2924402 57.02819096 -47.2924402 57.02819096 -45 59 C-37.07322285 60.63155887 -30.91643145 58.18674204 -24.1484375 54.17578125 C-13.39729673 46.74602268 -6.22771754 37.25040863 -3.66706848 24.25447083 C-3.0871329 20.92820529 -2.59682673 17.59304535 -2.125 14.25 C-1.9133118 12.85909165 -1.69977943 11.46846268 -1.484375 10.078125 C-0.9714852 6.72102812 -0.47713094 3.36233212 0 0 Z " fill="#FEFEFE" transform="translate(697,98)"/>
<path d="M0 0 C1.67220079 -0.00322473 3.34440132 -0.00658964 5.01660156 -0.01008606 C8.51986338 -0.01605279 12.02310065 -0.01792894 15.52636719 -0.01733398 C19.0635293 -0.01725336 22.60056016 -0.02409624 26.13769531 -0.0378418 C52.32118775 -0.13793319 78.11684319 0.52110439 104.0625 4.41796875 C104.78891693 4.52501129 105.51533386 4.63205383 106.26376343 4.74234009 C189.49365591 17.0473318 269.7376852 46.47552064 410.84765625 148.3515625 C413.01019333 150.39122408 415.23267792 152.33809489 417.4921875 154.26953125 C422.67381824 158.78046047 427.50252769 163.64566301 432.34790039 168.51049805 C433.93459946 170.10255841 435.52657742 171.68919865 437.11914062 173.27539062 C442.58203723 178.73471845 447.86417929 184.2869069 452.875 190.16796875 C454.32945517 191.77565248 455.78720895 193.3803659 457.25 194.98046875 C514.44241615 258.51691761 556.18498583 337.69988911 586.21191406 450.10644531 C586.86188318 453.10740728 587.5348641 456.10248233 588.2109375 459.09765625 C593.16933655 481.47078443 596.24484066 504.31068082 597.875 527.16796875 C597.96112549 528.33005859 598.04725098 529.49214844 598.13598633 530.68945312 C599.16690054 545.86940402 599.16626963 561.0844854 599.1875 576.29296875 C599.18865059 577.01103573 599.18980118 577.72910271 599.19098663 578.46892929 C599.21774366 602.57109461 598.36218193 626.28633031 594.875 650.16796875 C594.76373779 650.94321899 594.65247559 651.71846924 594.5378418 652.51721191 C591.81655594 671.39745851 588.39416409 690.03685592 583.56884766 708.50439453 C582.91574652 711.01154915 582.28795721 713.52354821 581.66796875 716.0390625 C578.36008086 729.27615725 574.16765904 742.222223 569.875 755.16796875 C569.52421387 756.23499023 569.17342773 757.30201172 568.81201172 758.40136719 C560.40491794 783.85756961 549.83278561 808.18855258 537.875 832.16796875 C537.35679688 833.20840332 536.83859375 834.24883789 536.3046875 835.32080078 C515.99828637 875.82731954 490.11508807 913.24336461 460.5625 947.54296875 C460.0778125 948.10709473 459.593125 948.6712207 459.09375 949.25244141 C449.14956203 960.71446013 438.62914603 971.60038435 427.90209961 982.32617188 C425.80618666 984.42428872 423.71844796 986.53032307 421.63085938 988.63671875 C414.34647445 995.95124091 406.99681402 1002.78500399 398.875 1009.16796875 C397.68745204 1010.17439141 396.50671831 1011.18896412 395.3359375 1012.21484375 C386.4954794 1019.9607556 377.30638296 1027.15649383 367.875 1034.16796875 C366.7919458 1034.97451904 366.7919458 1034.97451904 365.68701172 1035.79736328 C299.91078693 1084.56881411 222.2275096 1119.83113526 141.875 1136.16796875 C140.87130371 1136.37518555 139.86760742 1136.58240234 138.83349609 1136.79589844 C125.46098449 1139.52279345 112.04111874 1141.67836236 98.5 1143.35546875 C97.27434326 1143.51023682 96.04868652 1143.66500488 94.78588867 1143.82446289 C70.81632168 1146.64956279 46.80791763 1147.54984037 22.6875 1147.48046875 C21.34539807 1147.47854194 20.00329601 1147.47670175 18.66119385 1147.47494507 C-1.77628438 1147.43611812 -21.84611999 1146.77863044 -42.125 1144.16796875 C-43.52394637 1143.99881996 -44.92303997 1143.83088523 -46.32226562 1143.6640625 C-114.25348712 1135.49110689 -180.5977587 1113.94110655 -241.125 1082.16796875 C-241.84977539 1081.78769531 -242.57455078 1081.40742187 -243.32128906 1081.015625 C-253.98187754 1075.37681775 -264.35533501 1069.29946518 -274.625 1062.98046875 C-275.68638184 1062.32755859 -276.74776367 1061.67464844 -277.84130859 1061.00195312 C-288.12643791 1054.62372773 -298.20308502 1047.96213225 -308 1040.85546875 C-309.14480835 1040.02644043 -309.14480835 1040.02644043 -310.31274414 1039.18066406 C-317.39505869 1034.02209623 -324.30304877 1028.66480829 -331.125 1023.16796875 C-332.51912109 1022.04841797 -332.51912109 1022.04841797 -333.94140625 1020.90625 C-336.68677508 1018.68038327 -339.41077117 1016.43170317 -342.125 1014.16796875 C-342.64497559 1013.73436035 -343.16495117 1013.30075195 -343.70068359 1012.85400391 C-357.87550561 1000.98797557 -371.14987841 988.23439638 -384.25747681 975.21072388 C-385.44376534 974.03249811 -386.63152831 972.85575467 -387.82089233 971.68063354 C-394.31539237 965.25577038 -400.49680335 958.79691048 -406.15161133 951.60888672 C-408.28351085 948.97190399 -410.54900398 946.50947452 -412.875 944.04296875 C-418.81307239 937.58854224 -424.02645292 930.61580972 -429.2800293 923.6015625 C-431.04892925 921.26830925 -432.84898912 918.96118274 -434.65238953 916.65457153 C-440.38351792 909.29577878 -445.66691163 901.69469474 -450.8125 893.91796875 C-451.24153625 893.27145355 -451.67057251 892.62493835 -452.11260986 891.95883179 C-466.1722261 870.74166937 -478.74762821 848.94700812 -490.125 826.16796875 C-490.61452148 825.19682129 -491.10404297 824.22567383 -491.60839844 823.22509766 C-508.41514562 789.74499018 -522.01699223 753.50123829 -531.125 717.16796875 C-531.40794922 716.04680664 -531.69089844 714.92564453 -531.98242188 713.77050781 C-540.22814456 680.55805909 -545.49777833 646.68927249 -547.87524414 612.5612793 C-548.02670345 610.50347587 -548.19754127 608.4468083 -548.40405273 606.39379883 C-549.49533188 595.54081689 -549.41296253 584.62752111 -549.4375 573.73046875 C-549.44142761 572.0594812 -549.44142761 572.0594812 -549.44543457 570.35473633 C-549.45122436 547.13437798 -547.84096593 524.21956208 -545.125 501.16796875 C-545.04294312 500.46903503 -544.96088623 499.77010132 -544.87634277 499.04998779 C-542.7498724 481.18993973 -539.12430869 463.69128891 -535.125 446.16796875 C-534.77332764 444.58701416 -534.77332764 444.58701416 -534.41455078 442.97412109 C-524.9712174 400.56908912 -510.2225084 358.65001554 -490.10400391 320.08349609 C-489.027771 317.97772967 -488.00178651 315.85167527 -486.98046875 313.71875 C-468.15088829 274.65255227 -442.91401916 237.37385744 -414.45361328 204.70263672 C-413.04771532 203.07869799 -411.66110309 201.43970926 -410.27734375 199.796875 C-399.19657849 186.67011835 -387.37429326 174.32942274 -375.25 162.16796875 C-374.75776947 161.67305939 -374.26553894 161.17815002 -373.75839233 160.66824341 C-368.05994665 154.94625779 -362.25977507 149.42175224 -356.125 144.16796875 C-354.5801874 142.75473325 -353.03804675 141.33856466 -351.5 139.91796875 C-346.4616772 135.37194009 -341.18033332 131.20485122 -335.8203125 127.05078125 C-333.35312008 125.13678269 -330.91274105 123.19529672 -328.4921875 121.22265625 C-319.32919387 113.7595458 -309.87605623 106.84248852 -300.125 100.16796875 C-299.40441406 99.67296875 -298.68382812 99.17796875 -297.94140625 98.66796875 C-281.36435948 87.32111321 -264.1633639 77.01021775 -246.49609375 67.45410156 C-244.89362654 66.5848885 -243.29473735 65.70905143 -241.69921875 64.82714844 C-197.82711277 40.62243678 -149.33635446 23.44713599 -100.43505859 12.89013672 C-97.11329067 12.16541408 -93.8011784 11.40476699 -90.48828125 10.640625 C-70.29747594 6.10247648 -49.90511252 3.59294732 -29.34439087 1.40959167 C-27.87753797 1.24989683 -26.412037 1.07719029 -24.94833374 0.89082336 C-16.65382819 -0.09134433 -8.33873348 0.00382304 0 0 Z M34.875 46.16796875 C34.75495605 47.01391602 34.63491211 47.85986328 34.51123047 48.73144531 C34.04677368 51.93239586 33.56356491 55.12984525 33.06835938 58.32617188 C32.8595558 59.69812668 32.65780815 61.07117793 32.46386719 62.4453125 C30.38545251 77.10135 25.71715344 88.6909837 13.875 98.16796875 C6.86068096 103.01533315 0.72885573 105.97078793 -7.8828125 105.8046875 C-10.125 105.16796875 -10.125 105.16796875 -11.81640625 103.5703125 C-13.50461694 100.47106003 -14.16364303 97.48468881 -14.9375 94.04296875 C-16.58385084 87.2821077 -19.05550234 81.86967686 -23.125 76.16796875 C-23.805625 75.19859375 -24.48625 74.22921875 -25.1875 73.23046875 C-28.77764395 69.40870261 -31.65450179 67.96104448 -36.875 67.60546875 C-44.86923959 67.91158102 -49.66779654 72.88761875 -55.47143555 77.91601562 C-75.68570612 95.41002914 -97.32002984 107.69129033 -124.53918457 107.72421265 C-128.5166735 107.73486571 -132.49235422 107.82097675 -136.46875 107.91015625 C-137.23616516 107.92707016 -138.00358032 107.94398407 -138.79425049 107.96141052 C-163.20508801 108.58389851 -185.29002468 117.11233689 -203.125 134.16796875 C-206.3969484 137.9389071 -208.36979982 141.30817627 -208.625 146.35546875 C-207.7540444 152.99650518 -204.4638354 156.28934528 -199.48046875 160.46484375 C-187.93527008 168.81261592 -173.0868169 171.39741704 -159.125 170.16796875 C-153.19155362 169.0634744 -148.67160243 167.23454365 -145.125 162.16796875 C-144.45187687 160.12066894 -143.83271181 158.05531289 -143.25 155.98046875 C-139.62296337 143.27867249 -132.0980085 136.5419134 -120.9921875 129.890625 C-119.06900072 128.85895598 -117.14552651 127.99129353 -115.125 127.16796875 C-114.44953125 126.87019531 -113.7740625 126.57242188 -113.078125 126.265625 C-99.22471818 121.08254003 -82.99664958 123.52135139 -69.89208984 129.42529297 C-62.57749567 132.89421046 -56.7565297 137.35445066 -51.125 143.16796875 C-50.15626953 144.14056641 -50.15626953 144.14056641 -49.16796875 145.1328125 C-42.97533585 151.73019264 -35.73737898 161.94978073 -35.9375 171.35546875 C-36.125 175.16796875 -36.125 175.16796875 -37.125 177.16796875 C-48.68219046 181.02036557 -63.51195027 176.9107935 -74.6875 172.98046875 C-79.76804878 171.21153274 -83.89181403 169.84674541 -89.11328125 171.98046875 C-94.74410618 175.03447549 -98.30145951 179.46226754 -101.125 185.16796875 C-101.94313759 188.57669621 -102.26477469 191.79358666 -102.3359375 195.29296875 C-102.36429688 196.246875 -102.39265625 197.20078125 -102.421875 198.18359375 C-102.47395338 200.17298803 -102.51822626 202.16260198 -102.5546875 204.15234375 C-102.86911613 213.84722664 -102.86911613 213.84722664 -106.125 217.16796875 C-112.63381833 220.49272351 -118.98125114 220.73106162 -126.1875 221.10546875 C-150.63593872 222.80401421 -172.02673423 231.60028955 -188.75 249.98046875 C-189.89112744 251.36314871 -191.0143672 252.76067686 -192.125 254.16796875 C-192.90488281 255.13476562 -193.68476563 256.1015625 -194.48828125 257.09765625 C-210.45788624 277.15834419 -218.20591272 295.45065551 -216.125 321.16796875 C-215.40725422 325.41529341 -214.26099926 329.47408229 -213 333.58984375 C-212.00477519 337.65960236 -211.97798011 340.9962794 -212.125 345.16796875 C-215.88215615 347.04654682 -219.56038086 346.59656079 -223.4921875 345.51953125 C-233.69101034 341.8022033 -242.86511124 334.81749308 -247.6953125 324.96484375 C-248.24960937 323.77375 -248.80390625 322.58265625 -249.375 321.35546875 C-254.43002838 310.67258421 -262.85144572 302.27047519 -274.125 298.16796875 C-277.09260119 297.38663024 -277.09260119 297.38663024 -280.125 298.16796875 C-285.38618179 302.33532251 -287.86175722 308.33243104 -290.25 314.41796875 C-290.59200439 315.25626221 -290.93400879 316.09455566 -291.28637695 316.95825195 C-293.07819582 321.38623136 -294.74870634 325.84135992 -296.3125 330.35546875 C-300.11267438 340.92419406 -306.28478551 346.25233074 -315.3046875 352.734375 C-322.24484973 358.1217772 -327.66497334 367.4249856 -329.125 376.16796875 C-329.91169028 385.09128418 -329.79145082 392.87258735 -324.125 400.16796875 C-319.85971988 404.23797099 -314.5534573 405.75183348 -309.0625 407.60546875 C-298.31208709 411.39163338 -298.31208709 411.39163338 -295.125 416.16796875 C-292.72319442 421.38064655 -290.86601216 426.70419645 -289.125 432.16796875 C-288.77824219 433.245625 -288.43148437 434.32328125 -288.07421875 435.43359375 C-287.06559833 438.67114078 -286.09417126 441.91839453 -285.125 445.16796875 C-284.13803272 448.44290562 -283.13470993 451.71247944 -282.125 454.98046875 C-281.8878125 455.7691333 -281.650625 456.55779785 -281.40625 457.37036133 C-276.90923597 471.868038 -268.68027098 481.024242 -255.125 488.16796875 C-245.29881369 492.01807077 -236.26964671 490.81960574 -226.72851562 486.80810547 C-222.39615073 484.88273441 -218.30871688 482.63229532 -214.1875 480.29296875 C-206.02088108 475.83664076 -206.02088108 475.83664076 -200.125 477.16796875 C-197.13571441 478.80938836 -194.33903753 480.58694114 -191.54296875 482.5390625 C-186.65829114 485.82970961 -181.82073945 485.82716356 -176.125 485.16796875 C-169.26697123 483.23939823 -162.76605715 480.45624375 -156.25 477.60546875 C-143.95396531 472.53295313 -133.13715592 470.79060542 -119.875 470.66796875 C-118.70324219 470.64951904 -117.53148437 470.63106934 -116.32421875 470.61206055 C-105.01416695 470.69255063 -94.48127415 473.13308976 -86.125 481.16796875 C-84.23866526 483.99747085 -83.66243348 485.64011539 -82.875 488.85546875 C-79.80531016 499.20814819 -73.37989677 504.1208606 -64.125 509.16796875 C-61.61669249 510.42315757 -59.08864987 511.63668506 -56.5625 512.85546875 C-50.26077602 515.90953358 -44.35024242 519.38173564 -38.5 523.23046875 C-37.75419678 523.71281982 -37.00839355 524.1951709 -36.23999023 524.69213867 C-30.66277778 528.44251853 -24.85883006 532.63224211 -23.4375 539.48046875 C-24.59482461 545.6879371 -27.72813544 550.88642331 -31 556.23046875 C-32.83623687 561.02508725 -32.32576809 565.3525756 -30.3203125 570.0546875 C-24.16652358 580.04897972 -10.74522901 584.5995818 -0.125 588.16796875 C0.65738037 588.44519775 1.43976074 588.72242676 2.24584961 589.00805664 C9.6814786 591.3750387 16.60032848 591.40272667 24.35415649 591.16439819 C41.30898322 590.68481405 56.67785688 591.85209204 71.875 600.16796875 C72.71160156 600.60882812 73.54820312 601.0496875 74.41015625 601.50390625 C81.03532094 605.21072173 86.4760384 609.85780586 91.875 615.16796875 C92.57625 615.85632813 93.2775 616.5446875 94 617.25390625 C107.20225488 631.12658814 114.20553914 649.72296084 114.02734375 668.73046875 C113.83962329 672.96621244 113.23738592 676.1489303 111.875 680.16796875 C111.64167969 680.87050781 111.40835938 681.57304688 111.16796875 682.296875 C109.36994069 687.01772494 107.08455435 690.17507619 103.5625 693.79296875 C95.16168378 702.62424001 90.62772378 713.98653785 90.91796875 726.08984375 C90.94040222 727.69009114 90.96185254 729.29035256 90.98242188 730.890625 C91.01908245 733.38500068 91.06154934 735.87863569 91.12182617 738.37255859 C91.45242582 752.75436499 90.17128319 766.42781568 83.25 779.35546875 C82.7401355 780.33507568 82.7401355 780.33507568 82.2199707 781.33447266 C70.68684844 802.72676389 51.80072381 816.05423618 30.4140625 826.4375 C19.71470702 831.66908331 12.62148091 837.87610771 7.859375 849.0546875 C6.36925544 853.76748628 5.92806915 858.51221683 5.37890625 863.41015625 C3.29554413 878.94654664 -4.47786051 891.81598249 -13.625 904.16796875 C-24.49091083 918.84902161 -30.89268459 933.7172386 -35.1472168 951.50488281 C-50.73486213 1016.5745435 -50.73486213 1016.5745435 -71.125 1030.16796875 C-80.27071885 1031.29780398 -87.47143276 1030.31598535 -95.125 1025.16796875 C-95.79402344 1024.74515625 -96.46304687 1024.32234375 -97.15234375 1023.88671875 C-103.38014854 1019.35740617 -105.25682313 1012.45415934 -106.73730469 1005.14501953 C-107.23300343 1001.9493339 -107.65924384 998.75159775 -108.0625 995.54296875 C-110.58703892 977.20364389 -113.65853598 958.89977562 -119.43603516 941.27099609 C-119.91100932 939.82116354 -120.37626162 938.36812214 -120.83349609 936.91259766 C-124.901202 924.00694933 -130.34377782 912.02195978 -136.35546875 899.91015625 C-144.4329686 883.41342678 -145.45783426 868.4965164 -143.05799866 850.43307495 C-141.22238287 836.59770856 -140.62636562 822.94907445 -140.67895508 809.00195312 C-140.68765257 805.48120939 -140.6582225 801.96199882 -140.62695312 798.44140625 C-140.6253449 796.17057339 -140.62591136 793.8997377 -140.62890625 791.62890625 C-140.61205528 790.07422134 -140.61205528 790.07422134 -140.59486389 788.48812866 C-140.66549033 781.13577659 -142.01030617 776.02533896 -146.73046875 770.1796875 C-152.27424139 765.53934447 -157.78782909 763.95466458 -164.75390625 762.3125 C-172.2747218 760.50953896 -178.48418787 758.74394396 -184.125 753.16796875 C-184.73730469 752.59304688 -185.34960938 752.018125 -185.98046875 751.42578125 C-194.22042141 742.95742905 -196.87762683 731.40173974 -199.3125 720.16796875 C-199.55935547 719.08257813 -199.80621094 717.9971875 -200.06054688 716.87890625 C-202.77499844 704.74711738 -204.50628951 692.8796018 -205.07226562 680.4609375 C-205.63228258 672.2214801 -208.03705516 667.12165512 -214 661.41796875 C-217.54798117 659.07598995 -221.41849439 658.2154346 -225.5 657.23046875 C-237.38889546 654.34333179 -243.83938848 648.51643463 -250.3046875 638.3046875 C-255.47100202 628.95325772 -257.48378476 618.91677589 -257.5625 608.35546875 C-257.57249023 607.57969482 -257.58248047 606.8039209 -257.59277344 606.00463867 C-257.4566062 596.86684457 -254.77519647 588.65255721 -248.125 582.16796875 C-243.94525702 579.30033878 -239.43239398 577.10844144 -234.91210938 574.83398438 C-226.51205832 570.37767588 -220.55278463 564.40573208 -217.57763672 555.1953125 C-216.7555366 551.51315534 -216.65220492 547.92849919 -216.6875 544.16796875 C-216.66751953 543.41257812 -216.64753906 542.6571875 -216.62695312 541.87890625 C-216.63279858 535.07479923 -218.56344086 529.98027552 -223.16015625 524.93359375 C-227.70450331 522.22734227 -232.58131439 520.65242034 -237.5625 518.91796875 C-252.09442271 513.64944039 -263.94875409 506.75316373 -276.125 497.16796875 C-277.43791016 496.19730469 -277.43791016 496.19730469 -278.77734375 495.20703125 C-283.3306114 491.76927909 -286.97953583 488.2930953 -290.5 483.79296875 C-300.36525407 471.3015875 -313.25940431 463.90002208 -327.375 457.16796875 C-347.77344974 447.06355739 -357.48120578 428.01736882 -364.9375 407.54296875 C-365.31068359 406.51864746 -365.68386719 405.49432617 -366.06835938 404.43896484 C-370.39793695 392.12795637 -372.68605489 380.68393507 -372.625 367.60546875 C-372.6240332 365.65169312 -372.6240332 365.65169312 -372.62304688 363.65844727 C-372.47461922 353.95259507 -371.0772573 345.22700975 -368.21875 335.9765625 C-367.295222 332.76070607 -366.86398144 330.46332812 -367.125 327.16796875 C-370.12082861 326.88710982 -371.65745333 326.85095794 -374.1875 328.56640625 C-380.61535249 335.12385254 -383.92065994 341.9917299 -387.1875 350.48046875 C-389.49322207 356.36467146 -392.24744272 360.44422269 -398.125 363.16796875 C-400.9375 363.35546875 -400.9375 363.35546875 -403.125 363.16796875 C-406.39525142 355.21847461 -406.68321673 347.8155137 -406.625 339.29296875 C-406.62323761 338.6067746 -406.62147522 337.92058044 -406.61965942 337.21359253 C-406.5533324 325.61851549 -405.28935992 315.05162156 -401.125 304.16796875 C-400.86267578 303.47751465 -400.60035156 302.78706055 -400.33007812 302.07568359 C-397.10103314 293.81529093 -393.11540091 285.95018613 -388.78979492 278.21386719 C-385.52351789 272.32383234 -383.25739105 266.9848962 -384.125 260.16796875 C-386.65302955 256.74769348 -388.10575993 255.37081505 -392.3046875 254.53515625 C-393.23539062 254.41398438 -394.16609375 254.2928125 -395.125 254.16796875 C-410.78090238 273.24614125 -424.04017736 294.69702007 -436.125 316.16796875 C-436.68638672 317.16054688 -437.24777344 318.153125 -437.82617188 319.17578125 C-451.88386892 344.18813854 -463.36944762 370.19163799 -473.125 397.16796875 C-473.50076172 398.19937988 -473.87652344 399.23079102 -474.26367188 400.29345703 C-488.70068615 440.37055861 -496.81873189 481.88062551 -501.125 524.16796875 C-501.21194626 524.94081207 -501.29889252 525.7136554 -501.38847351 526.50991821 C-502.25750855 534.85263504 -502.32565464 543.18763371 -502.36328125 551.56640625 C-502.36735678 552.34861164 -502.3714323 553.13081703 -502.37563133 553.93672562 C-502.39640803 558.10315928 -502.41072771 562.26956115 -502.42016602 566.43603516 C-502.42888899 569.79430054 -502.44944128 573.15213343 -502.48168945 576.51025391 C-502.99222788 630.94612398 -494.98042986 685.61418294 -477.125 737.16796875 C-476.58020996 738.76487549 -476.58020996 738.76487549 -476.02441406 740.39404297 C-464.24214114 774.81378032 -449.62054708 807.82103058 -431.125 839.16796875 C-430.54959473 840.14572266 -429.97418945 841.12347656 -429.38134766 842.13085938 C-422.29453622 854.11639741 -414.92185317 865.79322242 -406.69189453 877.02734375 C-405.00108627 879.33725444 -403.32671699 881.65862189 -401.65234375 883.98046875 C-395.59163032 892.34132748 -389.39033044 900.48113511 -382.6171875 908.27734375 C-380.31969174 910.94215074 -378.12403788 913.66210592 -375.9375 916.41796875 C-365.94109973 928.6338495 -354.63967623 939.7537165 -343.52560425 950.94259644 C-342.40015173 952.07610867 -341.27618199 953.21109545 -340.15383911 954.34768677 C-333.88029923 960.69248347 -327.54793615 966.6889603 -320.53686523 972.22363281 C-318.09116109 974.19524814 -315.79324922 976.27202579 -313.5 978.41796875 C-280.57753212 1008.32860203 -240.06346724 1032.062009 -200.125 1051.16796875 C-198.86308838 1051.77608398 -198.86308838 1051.77608398 -197.57568359 1052.39648438 C-107.6307032 1095.49345812 -3.00221154 1111.44340161 152.97094727 1085.92626953 C155.7903053 1085.19008407 158.61996823 1084.50666516 161.45324707 1083.82646179 C170.81322386 1081.55726742 179.93521951 1078.73285485 189.0625 1075.66796875 C189.83613892 1075.40952179 190.60977783 1075.15107483 191.40686035 1074.88479614 C206.88898447 1069.6924852 221.91981195 1063.73159751 236.875 1057.16796875 C237.90447754 1056.72130859 238.93395508 1056.27464844 239.99462891 1055.81445312 C264.31619553 1045.2142546 287.6132917 1032.59524966 309.875 1018.16796875 C310.92349121 1017.48976074 310.92349121 1017.48976074 311.99316406 1016.79785156 C316.3280566 1013.98006635 320.61817187 1011.10225192 324.875 1008.16796875 C325.43670898 1007.78108887 325.99841797 1007.39420898 326.57714844 1006.99560547 C340.73430868 997.18665766 354.34140096 986.58830654 367.31225586 975.25927734 C369.54654814 973.31188637 371.79602345 971.38682502 374.0715332 969.48779297 C382.43543649 962.48355845 390.26323018 955.0629175 397.93676758 947.31201172 C399.83026917 945.40002613 401.73188 943.49639226 403.63476562 941.59375 C409.5900205 935.62142247 415.44798443 929.63124702 420.875 923.16796875 C421.82413883 922.07301925 422.77463274 920.97924273 423.7265625 919.88671875 C435.30357112 906.48273926 446.36064433 892.88773262 456.4074707 878.28979492 C458.02885552 875.94551686 459.67307675 873.61800298 461.31640625 871.2890625 C476.99677696 848.88853291 490.64455893 825.0947943 501.875 800.16796875 C491.21958695 801.7239348 481.72642551 809.19668525 473.875 816.16796875 C473.27429687 816.69777344 472.67359375 817.22757813 472.0546875 817.7734375 C463.58593699 825.7498188 457.13732195 835.67146359 450.8125 845.35546875 C439.36818471 862.82137815 439.36818471 862.82137815 430.875 867.16796875 C425.7056002 867.75161066 422.16635257 867.55313276 417.6640625 864.61328125 C409.74055332 858.21219305 403.67248339 849.33555159 401.875 839.16796875 C401.21843199 827.10984467 402.45458294 815.95696526 404.875 804.16796875 C405.19188091 802.29370416 405.50494356 800.41878598 405.8125 798.54296875 C407.51130753 789.33290477 409.69527275 780.06605889 413.7421875 771.58984375 C418.33868094 761.76285778 421.87133259 751.58068245 424.875 741.16796875 C425.225625 740.01296875 425.57625 738.85796875 425.9375 737.66796875 C431.59903304 718.6851815 432.37473372 702.66430652 427.06640625 683.6640625 C420.80292657 660.81237181 425.70479126 637.1260461 435.28320312 616.00146484 C437.61992348 610.67881057 438.82157696 605.99646289 437.875 600.16796875 C436.7477078 597.80314347 436.7477078 597.80314347 434.875 596.16796875 C433.92560547 595.19730469 433.92560547 595.19730469 432.95703125 594.20703125 C431.92642578 593.19769531 431.92642578 593.19769531 430.875 592.16796875 C429.42279029 590.64015027 427.98519423 589.09830906 426.5625 587.54296875 C425.90636719 586.84945312 425.25023437 586.1559375 424.57421875 585.44140625 C419.8868667 579.17005247 420.08708868 571.64508641 420.875 564.16796875 C422.74462919 556.73580645 425.57505605 549.79152128 428.6875 542.79296875 C430.74937107 537.96675951 432.1402941 533.39785104 430.875 528.16796875 C429.80949508 525.86011272 429.80949508 525.86011272 427.875 524.16796875 C419.91702622 522.67511399 411.90790694 524.6843001 404.16796875 526.48828125 C396.58677649 528.0530825 389.78177112 527.86054984 382.875 524.16796875 C378.00716267 520.85783937 375.36661953 517.19766824 372.3671875 512.15625 C370.59877434 509.7999089 369.68764371 509.05343066 366.875 508.16796875 C362.17362847 507.621632 359.30465431 507.44614891 355.48828125 510.36328125 C354.37521538 511.32522287 353.27530367 512.30254941 352.1875 513.29296875 C340.03496501 523.57829588 327.83227283 527.17099733 311.875 526.16796875 C304.65487141 525.06981746 298.16066107 523.44496221 292.875 518.16796875 C291.01801875 515.16446929 289.73480304 512.00794704 288.4375 508.73046875 C285.2190472 501.0761666 281.67243133 493.93907936 277.40625 486.8203125 C273.91548276 480.77380497 273.77599087 473.3275905 275.546875 466.625 C276.08619403 465.14696057 276.6327183 463.67152403 277.1875 462.19921875 C278.26814795 459.00639527 278.39505135 456.48329612 277.875 453.16796875 C273.34115621 448.51158864 269.39046687 448.08678873 263.125 447.85546875 C250.05768165 447.12129618 232.85082744 443.67860963 223.53125 433.64453125 C221.875 431.16796875 221.875 431.16796875 221.0625 427.98046875 C222.35502524 421.91554262 226.60055196 418.47655775 230.875 414.16796875 C241.13633208 403.63877057 246.82269279 390.76878552 247.3125 376.04296875 C247.13185649 368.54626322 245.45386899 363.35363044 240.75 357.54296875 C237.4396075 354.80829669 233.9596827 352.41327608 230.4296875 349.97265625 C219.52686597 342.27066306 213.21319204 332.76834563 208.875 320.16796875 C208.4625 319.05421875 208.05 317.94046875 207.625 316.79296875 C205.52323232 306.63442497 206.68181387 298.19480407 211.875 289.16796875 C222.79104977 273.41832914 243.21459272 264.90760112 260.875 259.16796875 C262.1021875 258.75675781 263.329375 258.34554687 264.59375 257.921875 C275.85621623 254.29099842 287.14655144 252.55067478 298.875 251.16796875 C299.87789062 251.03519531 300.88078125 250.90242187 301.9140625 250.765625 C308.12698968 250.04571439 314.37729304 250.03766456 320.625 249.98046875 C321.52541016 249.96733643 322.42582031 249.9542041 323.35351562 249.94067383 C328.57164586 249.93437876 332.99396157 250.24494183 337.875 252.16796875 C339.92611671 255.24464382 340.11519584 255.86938581 340.11328125 259.3359375 C340.12939453 260.14740234 340.14550781 260.95886719 340.16210938 261.79492188 C340.17884204 263.48234695 340.18432101 265.16992669 340.17773438 266.85742188 C340.33067473 273.11810951 341.86649255 277.31715488 345.875 282.16796875 C356.08644218 291.57913664 370.67794817 289.80846952 383.64355469 289.36767578 C395.73715939 288.62027712 409.84071338 285.9556262 418.375 276.73046875 C423.15981656 270.41829549 423.68564443 263.88488265 422.875 256.16796875 C420.6948131 246.4961329 414.02337473 238.67358307 405.875 233.23046875 C395.65276708 227.77351699 386.45545758 227.85180484 375.1875 228.10546875 C343.84184487 228.74807567 343.84184487 228.74807567 330.0625 220.48046875 C321.20267959 211.11437288 320.84033169 199.12801629 320.31640625 186.82421875 C319.79083143 183.66146759 318.74884062 181.75502058 316.875 179.16796875 C313.07812551 176.63671909 310.2582 176.36510538 305.875 177.16796875 C297.56484162 180.430016 291.12664201 185.92735257 284.875 192.16796875 C284.29878906 192.73257813 283.72257813 193.2971875 283.12890625 193.87890625 C275.11377232 202.41450342 272.12562213 212.65905742 270.43115234 223.96166992 C269.17433078 231.65533277 266.08646853 238.17527676 259.73046875 243.01171875 C248.37953129 250.08514504 235.71651787 253.17272239 222.5 250.48046875 C214.39270137 248.22844135 207.90085136 245.32851437 202.875 238.41796875 C200.67074726 231.25414734 201.69857473 225.43465984 203.875 218.35546875 C205.70691013 211.92415567 206.31847297 205.97552382 206.375 199.29296875 C206.40207031 197.99202271 206.40207031 197.99202271 206.4296875 196.66479492 C206.368216 189.97272615 204.89446977 183.85197029 200.56933594 178.57495117 C194.87818471 173.27725512 188.20511907 173.15320964 180.875 172.79296875 C175.15888144 172.42004551 170.3501093 171.9728926 165.875 168.16796875 C161.44341044 162.64518378 159.48619519 157.47045352 159.6015625 150.3984375 C160.03001585 146.90348234 161.14309489 145.33948307 163.875 143.16796875 C169.05106993 142.76980952 173.19301248 143.65689172 178.125 145.16796875 C184.34955125 146.94619068 190.4032028 148.33729168 196.875 147.16796875 C200.04120095 144.98178238 200.6646387 143.79905264 201.875 140.16796875 C204.26324838 123.41611226 193.38228747 103.49960107 183.70703125 90.4609375 C159.55899501 60.23727594 127.17406942 53.22846534 90.46679688 48.88287354 C71.97634007 46.82162839 53.48558362 45.61457034 34.875 46.16796875 Z " fill="#5970F6" transform="translate(662.125,51.83203125)"/>
</svg>
