<?xml version="1.0" encoding="UTF-8"?>
<svg version="1.1" xmlns="http://www.w3.org/2000/svg" width="2680" height="806">
<path d="M0 0 C884.4 0 1768.8 0 2680 0 C2680 265.98 2680 531.96 2680 806 C1795.6 806 911.2 806 0 806 C0 540.02 0 274.04 0 0 Z " fill="#FEFEFE" transform="translate(0,0)"/>
<path d="M0 0 C2.72923388 -0.0270817 5.45819637 -0.04687847 8.1875 -0.0625 C8.95642578 -0.07087891 9.72535156 -0.07925781 10.51757812 -0.08789062 C11.26845703 -0.09111328 12.01933594 -0.09433594 12.79296875 -0.09765625 C13.4789917 -0.10289307 14.16501465 -0.10812988 14.87182617 -0.11352539 C17.32017931 0.01707966 19.59937681 0.50867955 22 1 C23.5795652 1.15840343 25.16211338 1.2890606 26.74609375 1.39453125 C52.74041771 3.28615862 78.83979862 5.90121794 97.8125 25.6875 C106.56586008 36.09820583 113.05904657 48.4404115 114.28125 62.15625 C113.95558056 65.4491299 113.43648555 66.76963796 111 69 C105.36743235 70.14396383 100.32349505 68.81225364 95 67 C91.99170417 66.83093875 89.00954476 66.87961821 86 67 C85.49795137 74.51253427 85.49795137 74.51253427 87.75 81.5625 C91.86192011 86.01708011 95.42472962 86.27210618 101.375 86.8125 C107.35498028 87.46658276 111.02660794 88.32542111 115 93 C116.85637778 96.71275556 116.18475052 101.16427962 116.1875 105.25 C116.19974609 106.19230469 116.21199219 107.13460937 116.22460938 108.10546875 C116.23530388 113.18892486 115.88486678 117.21082488 114 122 C113.67858344 126.58018605 113.83268286 129.93309314 116 134 C122.79062358 138.95328714 129.70571253 141.13414474 138 140 C139.15822266 139.85498047 139.15822266 139.85498047 140.33984375 139.70703125 C147.06581088 138.5457959 152.40111301 135.68899438 157.140625 130.78515625 C159.39737765 127.40476836 159.83983799 124.75639636 160.4375 120.75 C162.44215382 109.16989541 168.23931176 100.5131887 177.3125 93.0625 C181.32783146 90.40075313 186.23233906 89.08959238 191 90 C193.78810129 92.60062552 194.88003828 94.27372015 195.50390625 98.05078125 C195.52324219 99.12714844 195.54257812 100.20351562 195.5625 101.3125 C195.91668369 108.27811248 196.82562356 113.12214883 201.125 118.8125 C210.01105247 125.57362688 221.05505829 124.43072814 231.64086914 124.36035156 C241.52839163 124.32065592 250.22146649 124.68631178 257.89379883 131.74145508 C262.34048995 136.4469446 264.68150442 141.4918473 265.5 147.9375 C265.26340205 152.81141783 263.35426079 156.49787157 260 160 C257.12872286 161.81400313 254.22802099 162.97151382 251 164 C249.51113281 164.53367188 249.51113281 164.53367188 247.9921875 165.078125 C242.60687203 166.58346338 237.04910129 166.36850982 231.5 166.375 C230.39785156 166.39949219 229.29570313 166.42398438 228.16015625 166.44921875 C221.53879531 166.47306519 217.34781038 166.01454085 212 162 C208.28492516 157.1704027 208.60540918 151.79265062 208.50390625 145.92578125 C208.2319616 143.00854543 208.2319616 143.00854543 206.58203125 141.125 C202.49923546 139.34611167 198.52715369 139.6020816 194.125 139.6875 C192.71033447 139.70441895 192.71033447 139.70441895 191.26708984 139.72167969 C169.63287665 140.14262188 147.04848777 145.65103469 129 158 C128.12601563 158.58007812 128.12601563 158.58007812 127.234375 159.171875 C121.81977518 163.1644587 118.56377129 168.44915015 117.515625 175.05078125 C117.03714202 186.14892819 120.98142776 195.52724525 127.96875 204.046875 C130.21716334 206.2088109 132.46841774 207.60551285 135.1875 209.125 C138.78562298 211.15134019 141.62803142 212.85414382 143.4453125 216.765625 C145.74871386 226.04411499 144.42330064 235.60607568 140 244 C137.10905863 248.39121664 133.94026943 252.1397535 130.0625 255.6875 C127.7995659 257.88134232 127.7995659 257.88134232 127.1875 260.9375 C128.27901406 265.05166838 130.14656071 266.3671162 133.62109375 268.6875 C140.8624856 272.68275068 149.12439747 273.66696968 157.19897461 274.91088867 C160.75394869 275.48047911 162.95902031 275.97268021 166 278 C165.54177532 281.46941546 165.10868317 284.67395049 164 288 C163.01298179 295.85046694 164.91874883 301.00110856 168.875 307.6875 C174.09135202 316.78323987 174.09135202 316.78323987 175.1796875 321 C175.66676209 324.15758177 175.66676209 324.15758177 178.25 325.3125 C179.1575 325.539375 180.065 325.76625 181 326 C181.845625 326.37125 182.69125 326.7425 183.5625 327.125 C192.77032274 329.46880942 201.59587146 328.37639884 210 324 C211.9442335 322.62140954 213.86105825 321.20342858 215.75 319.75 C218.88736609 317.39141272 220.89851354 316.03096197 224.6875 314.875 C229.410807 316.479142 231.29929874 319.60510736 234.10546875 323.6171875 C236.07441366 326.09359243 237.01709856 327.06054528 240 328 C243.33837381 328.279692 243.33837381 328.279692 246.9375 328.1875 C248.14277344 328.18105469 249.34804688 328.17460937 250.58984375 328.16796875 C253.53300658 328.02300197 256.13108179 327.61000254 259 327 C260.55989132 326.89022041 262.12380684 326.82577414 263.6875 326.8125 C264.45449219 326.79832031 265.22148438 326.78414063 266.01171875 326.76953125 C268 327 268 327 270 329 C270.55146556 334.55601549 269.18306978 338.62649748 267 343.625 C264.10792509 350.78752175 262.70571076 357.22300986 264 365 C265.55798162 368.30292103 267.26862699 370.28706497 269.859375 372.8125 C274.80993948 377.88187803 274.80993948 377.88187803 275.3671875 381.16015625 C274.96084287 386.16879549 273.05814658 390.50228867 271.12109375 395.0859375 C266.03314495 408.31105876 263.6012315 422.11313857 268 435.875 C274.16151457 455.43780877 267.41883672 474.19463003 259.8984375 492.3203125 C254.91438976 504.41187591 251.81074894 516.93793367 251 530 C250.91105469 531.19238281 250.82210937 532.38476562 250.73046875 533.61328125 C250.34956718 542.42716633 251.27691771 548.15861428 257 555 C257.70189453 555.85078125 257.70189453 555.85078125 258.41796875 556.71875 C261.20410345 559.5282976 263.74359279 560.3538511 267.5625 560.5625 C271.89763801 560.57022752 273.92110607 558.98684927 277 556 C279.22493102 553.04957212 281.23293084 549.96989465 283.25 546.875 C291.26545747 534.88406574 300.81468169 521.06393847 315 516 C315.99 516 316.98 516 318 516 C316.35865633 521.84125248 313.53358069 526.9032716 310.625 532.1875 C310.09261719 533.1563916 309.56023438 534.1252832 309.01171875 535.12353516 C300.82759229 549.86218407 291.8093265 563.81978427 281.45703125 577.12548828 C280.0231468 578.970221 278.60432805 580.82574325 277.1875 582.68359375 C271.95785687 589.49405529 266.47453874 595.95513984 260.59765625 602.21484375 C258.27702984 604.70297402 256.04267401 607.24377965 253.8125 609.8125 C194.94041652 675.30769287 103.51929403 716.15807166 16.19433594 720.87548828 C-44.17844626 723.22875326 -103.08756813 713.85986052 -158 688 C-159.09175537 687.48638916 -159.09175537 687.48638916 -160.20556641 686.96240234 C-164.1674242 685.07754405 -168.07932355 683.11142499 -171.96289062 681.0703125 C-173.37756616 680.32703139 -174.79581327 679.59052427 -176.21679688 678.859375 C-201.59849978 665.75365078 -225.68449455 648.97503651 -246.48828125 629.36328125 C-248.55163962 627.42186318 -250.64684164 625.57395534 -252.8125 623.75 C-256.90420267 620.19984621 -260.72605006 616.38351998 -264.5625 612.5625 C-265.18809814 611.94149414 -265.81369629 611.32048828 -266.45825195 610.68066406 C-270.84003336 606.28448973 -274.97245881 601.72172651 -279 597 C-279.54503174 596.36167236 -280.09006348 595.72334473 -280.65161133 595.06567383 C-326.97934364 540.38002351 -355.8504711 474.97490174 -365 404 C-365.13132324 403.02853027 -365.26264648 402.05706055 -365.39794922 401.05615234 C-377.03319584 311.84171574 -350.65969262 221.6398535 -299 149 C-298.45085937 148.22527344 -297.90171875 147.45054687 -297.3359375 146.65234375 C-296.22942237 145.09765908 -295.11594793 143.54792777 -294 142 C-291.01171686 142.32305764 -289.38678755 142.65189121 -287.125 144.6875 C-285.53124534 147.96355124 -286.10911962 149.44446845 -287 153 C-288.46692609 156.38191377 -290.14787425 159.64946384 -291.8125 162.9375 C-299.26482324 178.28168308 -305.5405321 197.03179819 -299.9765625 214.1484375 C-299.65429688 214.75945312 -299.33203125 215.37046875 -299 216 C-295.31518306 215.74876248 -293.52747037 215.55955983 -290.9453125 212.8203125 C-288.96145857 209.94412267 -287.81375619 207.33790269 -286.625 204.0625 C-284.49850156 198.73969064 -282.51567473 195.53400631 -278 192 C-277.01 192 -276.02 192 -275 192 C-275.81703911 199.08100559 -275.81703911 199.08100559 -276.51171875 202.5703125 C-279.0845509 215.67168472 -279.39808831 229.28750445 -275 242 C-274.76361816 242.69125977 -274.52723633 243.38251953 -274.28369141 244.09472656 C-270.99413606 253.55749902 -267.55349763 262.27468492 -261 270 C-260.48824219 270.66773438 -259.97648437 271.33546875 -259.44921875 272.0234375 C-254.42078472 277.87260444 -248.00209922 280.69590681 -241.22509766 284.06933594 C-232.41894964 288.57480701 -225.77495876 294.35846266 -219.515625 302.0546875 C-210.59810893 312.49538179 -196.44755174 320.22250605 -183.375 324.125 C-178.11269612 325.72564694 -175.84955965 327.28348748 -173 332 C-170.55067438 339.88325994 -171.71004375 346.54592655 -175.41796875 353.7734375 C-179.4695315 359.47563692 -185.97644966 362.36251802 -191.94140625 365.70703125 C-196.09894566 368.82385837 -198.43935224 372.0447558 -199.40161133 377.11694336 C-199.61070885 379.44969562 -199.65737913 381.7207273 -199.625 384.0625 C-199.61662109 384.89233398 -199.60824219 385.72216797 -199.59960938 386.57714844 C-199.27634724 395.50812458 -196.94978658 403.46001542 -190.9609375 410.34375 C-186.72323851 414.21640376 -182.85269717 416.63553498 -177.1875 417.75 C-172.48775602 418.86564016 -169.08709391 421.30383081 -166 425 C-163.92946695 428.99661031 -163.77708517 432.41460157 -163.6875 436.875 C-163.03497845 451.92768894 -160.69718574 473.09332437 -149.1875 484.0625 C-145.24754302 486.45737581 -141.40013207 487.70463402 -137 489 C-124.95150254 492.73862591 -124.95150254 492.73862591 -122 498 C-120.29426728 501.67299043 -119.74388586 504.54450021 -119.734375 508.5859375 C-119.73050781 509.67011963 -119.72664062 510.75430176 -119.72265625 511.87133789 C-119.73167969 513.02754639 -119.74070312 514.18375488 -119.75 515.375 C-119.75386719 516.57439209 -119.75773438 517.77378418 -119.76171875 519.00952148 C-119.83520595 526.73843595 -120.25092661 534.37153181 -121 542.0625 C-123.22830865 563.11873565 -123.22830865 563.11873565 -117 583 C-106.17378878 605.13078992 -99.59659658 628.1975466 -97.16333008 652.76855469 C-96.46190506 659.02453926 -94.89546763 663.01957977 -90.40234375 667.64453125 C-84.641351 672.2379628 -80.13211077 672.44433278 -73 672 C-70.05570224 671.42781868 -70.05570224 671.42781868 -68 670 C-67.28159794 668.69381444 -66.62880743 667.35160032 -66 666 C-65.19369141 664.453125 -65.19369141 664.453125 -64.37109375 662.875 C-56.48392398 647.27790024 -51.5730049 630.45807466 -46.95336914 613.64819336 C-43.74533852 602.07951222 -38.27225876 592.72415529 -31.375 583 C-25.24175244 574.3044225 -21.38325644 565.97823125 -20.0625 555.3125 C-19.03723877 547.72373608 -16.63241588 541.94583646 -10.58203125 537.0390625 C-5.95809612 533.98312846 -1.14110775 531.58554223 3.875 529.25 C19.27903122 521.70802627 29.76978464 508.82956005 36 493 C37.156263 489.531211 37.09368382 486.85730704 37.0703125 483.19921875 C37.07891431 481.81444066 37.08939672 480.42967324 37.1015625 479.04492188 C37.11806709 476.88354928 37.12544272 474.7245393 37.09960938 472.56323242 C36.9701431 459.88289394 39.59408913 449.75805401 48.3125 440 C48.78300781 439.54625 49.25351562 439.0925 49.73828125 438.625 C54.68922368 432.24855402 53.76523234 422.64275799 53 415 C50.06345229 401.60200106 41.15087123 388.91626781 29.875 381.25 C27.93996167 380.12558583 25.98056666 379.04213063 24 378 C23.07703125 377.50242187 22.1540625 377.00484375 21.203125 376.4921875 C11.60374643 372.22850412 1.84477237 372.39465018 -8.51904297 372.36376953 C-21.89434232 372.26185908 -32.40546381 368.77184751 -43.125 360.625 C-45.60536765 357.15248528 -46.54135437 354.1991542 -46 350 C-44.83912213 347.37361674 -43.48339601 344.90704381 -42.109375 342.38671875 C-40.76515447 339.86966134 -40.76515447 339.86966134 -40.75 336.25 C-44.15862479 327.38757555 -55.19572956 323.36889509 -63.08642578 319.04882812 C-73.23023772 313.4890149 -78.90419328 309.08917883 -83 298 C-83 297.34 -83 296.68 -83 296 C-90.51046241 291.93183286 -96.79622155 290.49150717 -105.25 290.625 C-106.18094482 290.63515137 -107.11188965 290.64530273 -108.07104492 290.65576172 C-116.68754748 290.84959358 -123.99960605 292.45598549 -132.03125 295.53515625 C-132.73983154 295.80634277 -133.44841309 296.0775293 -134.1784668 296.35693359 C-135.56110068 296.89505515 -136.93812448 297.44791533 -138.30786133 298.01806641 C-143.52222757 300.11119888 -148.13493101 300.90843651 -153.5625 299.1875 C-156 298 -156 298 -158.875 296.3125 C-162.83743795 294.64827606 -164.82207122 295.09500176 -169 296 C-171.22572904 297.11420049 -173.41353402 298.30661079 -175.5625 299.5625 C-182.62682238 303.33407328 -188.98379944 304.63519214 -197 303 C-204.48220571 299.8644207 -210.03072065 295.05449777 -214 288 C-216.13673924 282.54440216 -217.85854127 276.97832097 -219.5625 271.375 C-220.46413725 268.41908418 -221.38497577 265.47008056 -222.31640625 262.5234375 C-222.51238907 261.85766693 -222.70837189 261.19189636 -222.91029358 260.50595093 C-224.45573636 255.61557455 -226.49441825 252.63313742 -230 249 C-233.13055789 247.45619457 -233.13055789 247.45619457 -236.5 246.5 C-242.113584 244.53143548 -244.90802852 243.07966743 -248 238 C-250.30595826 231.08212522 -249.16595537 224.92030479 -246.2578125 218.3515625 C-243.03111161 212.31903474 -238.63578025 208.41656562 -232.9296875 204.75 C-227.5833556 199.90150467 -225.57280214 192.50467544 -223.2890625 185.87304688 C-221.59183046 181.12353464 -219.63346864 176.63346864 -216 173 C-212.09769931 172.6174215 -209.61019703 172.70139294 -206.0625 174.4375 C-200.28570307 179.27114641 -195.60036088 184.26649237 -192.5 191.1875 C-189.49786372 197.67533813 -184.64461064 200.88138778 -178.3125 203.875 C-175.25315707 204.91402213 -173.18727577 205.37497362 -170 205 C-169.67 204.67 -169.34 204.34 -169 204 C-169.34760066 200.80207391 -169.85397421 197.69472875 -170.515625 194.546875 C-173.66301901 179.16960714 -172.12246202 167.33985373 -163.953125 153.953125 C-156.22485002 142.26797323 -147.27847364 132.84181978 -135 126 C-134.17757812 125.52433594 -133.35515625 125.04867187 -132.5078125 124.55859375 C-124.26809189 120.46318365 -115.62026029 119.89709293 -106.54443359 119.16308594 C-105.48691895 119.06672852 -104.4294043 118.97037109 -103.33984375 118.87109375 C-102.38456787 118.79818115 -101.42929199 118.72526855 -100.44506836 118.65014648 C-97.88426795 118.1883643 -97.88426795 118.1883643 -96.18505859 116.18261719 C-94.38382487 112.86514098 -94.68550048 109.49201395 -94.6875 105.8125 C-94.50845166 99.30246834 -93.71832144 94.8870495 -89.66796875 89.56640625 C-87.2993119 87.34197675 -85.32193669 86.05497162 -82.02734375 85.91796875 C-77.79533191 86.46377962 -73.89209299 87.29890925 -69.8125 88.5625 C-63.27849803 90.46245802 -56.75820809 90.49496735 -50 90 C-49.67 89.67 -49.34 89.34 -49 89 C-49.12862782 80.89644762 -51.81916695 74.103767 -57.6953125 68.3359375 C-59 67 -59 67 -59 65 C-59.56332031 64.73058594 -60.12664062 64.46117188 -60.70703125 64.18359375 C-63.12885818 62.93348547 -65.38486906 61.51972055 -67.6875 60.0625 C-78.07655163 53.85940202 -87.77545724 52.32608646 -99.6875 55.125 C-107.88480216 57.65269836 -115.4566882 62.58206191 -120 70 C-121.09334574 72.8244765 -122.02909405 75.6310017 -122.84765625 78.546875 C-124.32137534 81.68414818 -125.92372851 82.51440926 -129 84 C-138.05091082 86.84457197 -147.95897323 85.03092895 -156.265625 80.86328125 C-160.29320809 78.4989408 -163.64189862 76.12667742 -166 72 C-166.74872755 68.39249451 -166.74204499 66.20197064 -164.77734375 63.01953125 C-155.73145551 51.96344562 -142.06180875 44.98850011 -128 43 C-124.44835938 42.83342167 -120.9091567 42.7956801 -117.35375977 42.77563477 C-92.81182539 42.61498997 -76.69288905 34.66054972 -58.26953125 18.8125 C-54.65667817 15.9271922 -52.81564585 15.01315558 -48.125 14.9375 C-43.83443404 15.63132758 -41.87420219 17.50310035 -39.3125 20.9140625 C-35.34757855 27.21545552 -33.31005171 33.708528 -32 41 C-22.94894169 40.96220852 -17.56728809 38.22141579 -10.98828125 32.140625 C-2.54498494 23.29020958 -1.87613088 11.58943262 0 0 Z " fill="#FEFEFE" transform="translate(450,40)"/>
<path d="M0 0 C1.01141493 0.00035877 1.01141493 0.00035877 2.04326248 0.00072479 C23.07717592 0.01015734 43.62073026 0.6022637 64.375 4.375 C65.69671183 4.60795661 67.01849118 4.84053049 68.34033203 5.07275391 C82.07176447 7.51238253 95.76663065 10.21988874 109.02539062 14.60302734 C111.83746296 15.52694388 114.66108938 16.41173016 117.484375 17.30078125 C133.53146006 22.42698203 149.00052836 28.50176582 164.375 35.375 C165.73069092 35.97151367 165.73069092 35.97151367 167.11376953 36.58007812 C197.34109133 49.9540981 224.74111302 68.65888511 250.375 89.375 C251.26687012 90.08897949 251.26687012 90.08897949 252.17675781 90.81738281 C261.78868698 98.58065245 270.50062312 107.29596049 279.25 116 C279.83240448 116.57704681 280.41480896 117.15409363 281.01486206 117.74862671 C288.28579591 124.96879823 295.01353239 132.33145419 301.375 140.375 C302.23805589 141.40282921 303.10646061 142.42623893 303.984375 143.44140625 C360.49154459 209.33206568 390.79460447 297.15156007 392.375 383.375 C392.40223145 384.53741211 392.42946289 385.69982422 392.45751953 386.89746094 C393.31786458 426.73306 388.64654939 466.36056055 376.375 504.375 C376.05837402 505.38723633 375.74174805 506.39947266 375.41552734 507.44238281 C361.16440633 552.93504534 339.52081833 596.2480448 309.375 633.375 C308.24191406 634.79425781 308.24191406 634.79425781 307.0859375 636.2421875 C302.78639879 641.57597951 298.33328717 646.73672035 293.7109375 651.79296875 C292.41801431 653.22210291 291.13190314 654.65784108 289.87573242 656.11938477 C285.13115855 661.63695487 280.09412942 666.80544546 274.9375 671.9375 C274.12990234 672.74896484 273.32230469 673.56042969 272.49023438 674.39648438 C267.61497228 679.26388948 262.6298194 683.92085175 257.375 688.375 C256.73925049 688.91745361 256.10350098 689.45990723 255.44848633 690.01879883 C218.84165287 721.05332527 177.31399658 744.88342777 132.24267578 761.32836914 C130.34663148 762.0203785 128.45425813 762.72253884 126.56591797 763.43530273 C120.2892898 765.78445986 113.99627661 767.67357009 107.5 769.3125 C106.49880127 769.56700928 105.49760254 769.82151855 104.46606445 770.08374023 C102.41150123 770.60382333 100.35624628 771.12118176 98.30029297 771.63574219 C95.66429238 772.30189223 93.03697678 772.99404666 90.41015625 773.6953125 C79.44811245 776.54865986 68.38014735 778.44999665 57.1875 780.125 C56.13567032 780.28550339 56.13567032 780.28550339 55.06259155 780.44924927 C36.8774274 783.19592376 18.74248712 783.58513388 0.375 783.5625 C-1.10833832 783.56109512 -1.10833832 783.56109512 -2.62164307 783.55966187 C-23.62774866 783.51667471 -44.04352601 782.26219648 -64.8125 779 C-66.69267822 778.7047644 -66.69267822 778.7047644 -68.61083984 778.40356445 C-77.47289142 776.92459722 -85.97779568 774.77003685 -94.625 772.375 C-96.15691029 771.98958547 -97.69045359 771.610512 -99.2265625 771.2421875 C-150.49248123 758.74870694 -197.93328755 733.62458513 -239.5625 701.5625 C-240.24127197 701.04252441 -240.92004395 700.52254883 -241.61938477 699.98681641 C-254.03240539 690.32308533 -265.57412414 679.76306011 -276.65234375 668.60839844 C-278.51338841 666.73653375 -280.38503428 664.87574273 -282.2578125 663.015625 C-289.17244954 656.10902002 -295.59512849 649.07694114 -301.625 641.375 C-302.63777257 640.13178542 -303.65307057 638.89062009 -304.671875 637.65234375 C-367.80782805 559.96941003 -400.24276188 457.60168921 -390.63290405 355.33291626 C-389.13799728 341.61626629 -386.93908195 327.98762609 -384.06445312 314.49316406 C-383.65951157 312.54134577 -383.3039665 310.57945215 -382.953125 308.6171875 C-377.30823376 277.29492514 -365.45574113 245.53420061 -350.68164062 217.3984375 C-349.55618603 215.24322315 -348.45710488 213.075706 -347.359375 210.90625 C-334.76870611 186.23760776 -319.39316831 163.57985532 -301.625 142.375 C-301.1201709 141.77107422 -300.6153418 141.16714844 -300.09521484 140.54492188 C-296.96136358 136.80196744 -293.80877275 133.07561527 -290.625 129.375 C-289.86062622 128.47599976 -289.86062622 128.47599976 -289.08081055 127.55883789 C-284.35599946 122.06377383 -279.32264996 116.92317744 -274.1875 111.8125 C-273.37990234 111.00103516 -272.57230469 110.18957031 -271.74023438 109.35351562 C-264.01187025 101.63760655 -255.84113205 94.57661602 -247.32714844 87.74267578 C-246.12991485 86.78069894 -244.93550122 85.81520714 -243.74316406 84.84716797 C-196.50701011 46.61218912 -139.77098335 20.12771084 -80.3269043 7.95166016 C-78.02166497 7.45965914 -75.75116864 6.90965107 -73.47265625 6.30859375 C-68.94121189 5.20908593 -64.42784953 4.51280836 -59.8125 3.875 C-59.00619141 3.75769531 -58.19988281 3.64039063 -57.36914062 3.51953125 C-54.45767523 3.10896828 -51.54245331 2.7406553 -48.625 2.375 C-47.34012695 2.20145996 -46.05525391 2.02791992 -44.73144531 1.84912109 C-29.85857152 -0.03198888 -14.97149394 -0.02353986 0 0 Z M7.375 31.375 C7.28001221 31.99955078 7.18502441 32.62410156 7.0871582 33.26757812 C6.63933955 36.13999593 6.16365096 39.00714823 5.6875 41.875 C5.53861328 42.85726562 5.38972656 43.83953125 5.23632812 44.8515625 C3.73532898 53.68096925 0.69959857 59.88099426 -6.1875 65.75 C-7.30318359 66.72066406 -7.30318359 66.72066406 -8.44140625 67.7109375 C-12.24161236 70.60698008 -15.10809695 71.62366555 -19.875 72 C-20.76703125 72.07476562 -21.6590625 72.14953125 -22.578125 72.2265625 C-23.25359375 72.27554688 -23.9290625 72.32453125 -24.625 72.375 C-24.77195312 71.62476563 -24.91890625 70.87453125 -25.0703125 70.1015625 C-26.90589629 61.72539278 -29.79474446 53.06399765 -36.625 47.375 C-40.34220349 46.36694482 -42.91151825 45.71058871 -46.5390625 47.1171875 C-50.6248088 49.55518426 -54.17091825 52.64229324 -57.8125 55.6875 C-72.36006528 67.73031919 -86.50099301 74.07833349 -105.5625 73.9375 C-126.10641477 74.2256811 -141.88557448 78.23175461 -156.625 93.375 C-159.16104144 97.17906216 -159.22698813 98.86008904 -158.625 103.375 C-154.68572144 110.31218541 -148.14471352 113.46323899 -140.75 115.625 C-133.1785343 117.26968237 -124.46208168 117.47724901 -117.625 113.375 C-115.66526916 110.1924466 -115.66526916 110.1924466 -114.625 106.375 C-111.53677862 98.20510217 -105.96269548 93.08605968 -98.625 88.5 C-87.86920289 84.46657608 -77.01615697 83.73813995 -66.23828125 88.08984375 C-62.76340046 89.79871637 -59.63030006 91.83254867 -56.5 94.10546875 C-54.5466075 95.55115005 -54.5466075 95.55115005 -51.625 96.375 C-50.625 98.16015625 -50.625 98.16015625 -49.625 100.375 C-48.14066847 102.62973186 -46.60401589 104.84266466 -45.0625 107.05859375 C-42.28057659 111.54142142 -41.26434162 115.08534371 -41.625 120.375 C-43.47539495 122.22539495 -46.32725575 121.63509196 -48.8125 121.6875 C-55.51428015 121.66696339 -61.14171329 120.37872263 -67.46875 118.25 C-72.18137262 116.94353036 -75.3469304 116.7359652 -79.75 118.9375 C-83.49324572 122.11112137 -86.14116918 125.58908139 -86.98925781 130.47241211 C-87.1313703 132.67490726 -87.18556235 134.85551201 -87.1875 137.0625 C-87.2414436 145.97860626 -87.2414436 145.97860626 -90.625 149.375 C-93.0065918 149.9934082 -93.0065918 149.9934082 -95.82421875 150.17578125 C-96.86118896 150.26174561 -97.89815918 150.34770996 -98.96655273 150.4362793 C-100.07071533 150.51918213 -101.17487793 150.60208496 -102.3125 150.6875 C-118.01118908 152.2287442 -129.89625171 156.45366554 -141.625 167.375 C-142.2953125 167.95507812 -142.965625 168.53515625 -143.65625 169.1328125 C-153.91049072 178.53253316 -163.82882744 193.10609607 -164.828125 207.25 C-164.93485537 214.36535803 -164.13695876 220.62700461 -162.28125 227.5 C-161.65238429 230.25503071 -161.4241121 232.56256941 -161.625 235.375 C-161.955 235.705 -162.285 236.035 -162.625 236.375 C-169.82028357 236.24417666 -174.94004512 233.73444727 -180.625 229.375 C-183.74222877 226.12883476 -185.58614872 222.49775967 -187.4375 218.4375 C-190.29924631 212.44535364 -195.40695707 206.90416429 -201.625 204.375 C-205.125 203.79166667 -205.125 203.79166667 -208.625 204.375 C-212.14346891 207.96789806 -213.89880799 211.98333123 -215.625 216.625 C-216.14645053 217.9625068 -216.66858386 219.29974761 -217.19140625 220.63671875 C-218.02587022 222.80133023 -218.84547796 224.96936833 -219.65234375 227.14453125 C-221.89288397 232.78915403 -224.78723408 235.78209853 -229.625 239.375 C-236.06301291 244.26411859 -239.9813536 249.31182898 -241.625 257.375 C-242.16489681 263.08544701 -241.92342268 267.48423534 -238.625 272.375 C-234.86592592 276.36901621 -230.48004029 277.56862598 -225.34375 279.0546875 C-220.57220729 281.37190221 -217.83941746 285.30056894 -216.03515625 290.17382812 C-215.57297046 291.58044072 -215.12427706 292.99154137 -214.6875 294.40625 C-214.44008057 295.16039185 -214.19266113 295.91453369 -213.93774414 296.69152832 C-212.88970936 299.8873895 -211.87358913 303.09315725 -210.85449219 306.29833984 C-210.10151957 308.65054212 -209.33240814 310.99704694 -208.5625 313.34375 C-208.34150635 314.05954224 -208.1205127 314.77533447 -207.89282227 315.51281738 C-205.2278015 323.62352065 -200.06549563 328.63723092 -192.76171875 332.99609375 C-186.41492108 335.78615549 -179.98639482 336.04694978 -173.45458984 333.54296875 C-170.42715267 332.1849151 -167.4726448 330.75005182 -164.57373047 329.13452148 C-159.8575548 326.57310152 -157.03567347 325.92450774 -151.625 327.375 C-149.4375 328.875 -149.4375 328.875 -147.625 330.375 C-141.17462945 332.82169228 -135.03635149 331.10113854 -128.9375 328.5625 C-127.51197931 328.00768689 -126.08487843 327.45691728 -124.65625 326.91015625 C-123.96402344 326.64477051 -123.27179688 326.37938477 -122.55859375 326.10595703 C-114.34608698 323.00138061 -106.66498618 322.07563397 -97.9375 321.9375 C-97.05811768 321.91510254 -96.17873535 321.89270508 -95.27270508 321.86962891 C-88.84552085 321.89258961 -84.31240919 323.50826501 -78.625 326.375 C-77.635 326.705 -76.645 327.035 -75.625 327.375 C-74.81640625 329.23046875 -74.81640625 329.23046875 -74.1875 331.5625 C-71.30972672 340.79474729 -66.18526419 344.85958417 -57.88916016 349.30517578 C-55.96966755 350.31129269 -54.04776522 351.31265253 -52.125 352.3125 C-45.15097276 355.93930675 -38.07439558 359.70090663 -33.625 366.375 C-33.77882235 370.98967062 -34.20471223 374.02171713 -36.75 377.875 C-38.74173617 381.59290752 -39.28196654 383.3479936 -38.46875 387.3984375 C-35.27417587 394.8820232 -26.6060017 398.10686271 -19.67578125 401.2109375 C-14.82270638 403.06268694 -10.53477848 403.48776301 -5.35546875 403.48046875 C15.62115812 403.66045976 30.1729525 405.76996989 46.3203125 420.1015625 C55.72840624 429.67841128 60.6651963 443.06058077 60.69189453 456.23022461 C60.55227301 463.82925517 58.56043333 469.09756451 53.4375 474.75 C44.77433388 484.37251974 44.73023912 495.15669336 44.90478516 507.40209961 C45.06117016 522.89694359 40.37983324 535.80170759 29.6796875 547.26171875 C22.41082158 554.39042702 14.35546142 559.24568879 5.3515625 563.95703125 C-2.16688051 567.93797628 -8.48928004 572.05271007 -11.625 580.375 C-11.96535005 582.36729297 -12.25172703 584.36915106 -12.5 586.375 C-14.12852881 598.2632603 -18.64694153 607.45299015 -25.625 617 C-35.1354467 630.03240598 -39.16852049 643.15229803 -43.6171875 658.54296875 C-47.40241201 671.55535847 -51.42136005 684.18083157 -58.2421875 695.94140625 C-59.73785681 698.39067172 -59.73785681 698.39067172 -60.625 701.375 C-65.14520786 704.14544998 -70.50672031 704.01578619 -75.625 703.375 C-80.93960808 701.5727437 -84.5348216 697.9661222 -87.625 693.375 C-89.13550468 688.27495653 -89.95455191 683.29471547 -90.5612793 678.01904297 C-93.4416193 653.16966606 -101.49296085 630.67466229 -112.27734375 608.24609375 C-114.4730355 603.56831568 -114.81689678 599.70822928 -114.8125 594.625 C-114.81314453 593.83279053 -114.81378906 593.04058105 -114.81445312 592.22436523 C-114.76079499 585.91770566 -114.2501197 579.70987828 -113.625 573.4375 C-112.77637495 564.60261292 -112.34648107 555.81315552 -112.25 546.9375 C-112.22421875 545.80642822 -112.1984375 544.67535645 -112.171875 543.51000977 C-112.15629573 537.01686019 -112.51806577 531.62953083 -116.625 526.375 C-120.67646258 522.95376493 -124.51983797 521.62889945 -129.625 520.375 C-137.07088537 518.54618605 -142.23036412 515.79348136 -146.625 509.375 C-153.49422308 495.75636587 -155.98780775 479.89797178 -156.25390625 464.79296875 C-156.81482178 459.62664151 -158.63287088 456.41552566 -162.1875 452.6875 C-165.5409445 450.06161079 -169.17131956 449.20479757 -173.23046875 448.109375 C-180.21229447 445.96812992 -184.44602091 441.03257204 -188.046875 434.98828125 C-191.23087329 428.5755656 -192.1368949 422.68481458 -192.25 415.625 C-192.27296143 414.83327393 -192.29592285 414.04154785 -192.31958008 413.22583008 C-192.24094049 407.20832862 -190.66139265 402.89137568 -186.625 398.375 C-184.24973828 396.49425347 -181.7477537 395.07897365 -179.0625 393.6875 C-172.45099439 390.16524139 -168.04308079 386.6553521 -165.1640625 379.39453125 C-163.34827466 372.5919058 -164.27504839 366.4545418 -167.625 360.375 C-170.24213074 356.90329595 -173.97699886 356.0229147 -177.9375 354.6875 C-193.10115227 349.23792829 -206.89108729 340.71169613 -217.25 328.1875 C-223.22015886 321.03787074 -231.05089981 316.58154927 -239.25 312.4375 C-256.40650576 303.63658902 -262.61048955 287.76119853 -268.66796875 270.3828125 C-272.52333037 257.31440362 -271.141427 243.7419571 -268.28125 230.6328125 C-267.49335186 227.27533641 -267.49335186 227.27533641 -267.625 223.375 C-271.84619119 224.12845993 -273.45339543 225.84431306 -276.1171875 229.0703125 C-278.46766107 232.66300526 -279.83892933 236.56786062 -281.25390625 240.60546875 C-282.88020926 243.89050816 -284.55763743 245.4044807 -287.625 247.375 C-290.4375 247.125 -290.4375 247.125 -292.625 246.375 C-297.79703389 228.16746248 -292.07410913 209.06474906 -283.52734375 193.03125 C-279.87231126 186.42032342 -279.87231126 186.42032342 -278.6875 179.125 C-279.77730903 175.92822683 -280.66540773 174.94184297 -283.625 173.375 C-286.58598244 173.02257632 -286.58598244 173.02257632 -287.96850586 174.70996094 C-288.42104736 175.33676758 -288.87358887 175.96357422 -289.33984375 176.609375 C-289.85514648 177.31852051 -290.37044922 178.02766602 -290.90136719 178.75830078 C-291.44954102 179.53931152 -291.99771484 180.32032227 -292.5625 181.125 C-293.13516602 181.93050293 -293.70783203 182.73600586 -294.29785156 183.56591797 C-300.06673444 191.80060977 -305.25543881 200.35216681 -310.28320312 209.05419922 C-311.494373 211.14906472 -312.72145507 213.23356062 -313.953125 215.31640625 C-329.05924991 241.15928259 -340.39047281 268.97238209 -347.97802734 297.91162109 C-348.62072961 300.35874028 -349.28799786 302.79824825 -349.95703125 305.23828125 C-361.06524039 346.63896663 -363.42568801 392.89000898 -357.625 435.375 C-357.46370605 436.58623535 -357.30241211 437.7974707 -357.13623047 439.04541016 C-354.77944126 456.47551881 -351.60471477 473.47843146 -346.625 490.375 C-346.32408447 491.43050049 -346.32408447 491.43050049 -346.01708984 492.50732422 C-332.11022034 541.21126188 -307.27700374 587.49785546 -273.625 625.375 C-272.39506314 626.79099804 -271.16576621 628.20755256 -269.9375 629.625 C-268.83437139 630.87591618 -267.73017689 632.12589309 -266.625 633.375 C-265.98820312 634.10460937 -265.35140625 634.83421875 -264.6953125 635.5859375 C-255.68259867 645.78714106 -246.09712084 655.66171027 -235.625 664.375 C-234.77164063 665.10589844 -233.91828125 665.83679688 -233.0390625 666.58984375 C-212.60925511 683.92505565 -190.36557437 698.945646 -166.625 711.375 C-165.65916992 711.88571045 -165.65916992 711.88571045 -164.67382812 712.40673828 C-146.38348853 722.02461133 -127.29052513 730.04380271 -107.625 736.375 C-106.91214844 736.60525879 -106.19929687 736.83551758 -105.46484375 737.07275391 C-58.8245154 751.92573698 -6.2457637 757.15981682 42.375 750.375 C43.66390137 750.19727051 44.95280273 750.01954102 46.28076172 749.83642578 C68.20066002 746.7480346 89.26661601 742.02682621 110.375 735.375 C111.94894531 734.88410889 111.94894531 734.88410889 113.5546875 734.38330078 C162.54630524 718.88053985 207.30742813 691.76611749 244.8203125 656.81201172 C246.3782096 655.37203334 247.95193204 653.95158273 249.53125 652.53515625 C261.91002591 641.3840743 273.03586203 629.31920538 283.10009766 616.04394531 C284.33358662 614.42921331 285.59412451 612.83525535 286.85546875 611.2421875 C300.47709688 593.96069426 311.62558996 575.1443965 322.0625 555.8125 C322.4018457 555.18706299 322.74119141 554.56162598 323.09082031 553.91723633 C324.8313788 550.81779361 324.8313788 550.81779361 325.375 547.375 C313.69560022 549.23214838 304.48310861 558.48097372 297.68652344 567.65380859 C294.78410932 571.7557474 291.98582886 575.92055722 289.22265625 580.1171875 C283.66905101 588.51229933 283.66905101 588.51229933 279.375 591.375 C275.53558327 592.14883593 271.92530232 592.18398712 268.40625 590.34765625 C263.74966359 586.66119201 260.19181986 582.04445125 258.375 576.375 C256.26425341 557.31231983 261.12591867 537.05510869 268.92578125 519.74609375 C271.21587755 514.41899643 272.81087512 508.95023622 274.375 503.375 C274.67535156 502.42367188 274.97570312 501.47234375 275.28515625 500.4921875 C278.98833235 487.84971653 278.25493986 476.26009755 274.28125 463.828125 C270.31926171 448.73158343 275.45322845 433.08513282 281.421875 419.2421875 C282.49155435 416.0243816 282.77656017 413.74262962 282.375 410.375 C281.04141979 408.18228354 281.04141979 408.18228354 279.125 406.375 C278.48949219 405.68792969 277.85398437 405.00085938 277.19921875 404.29296875 C276.59722656 403.66003906 275.99523437 403.02710938 275.375 402.375 C271.01248873 397.56505168 270.67745171 393.37555057 270.8359375 387.09375 C271.56351185 382.07454142 273.21590411 377.65394343 275.23974609 373.02001953 C277.12528864 368.6234043 277.84914297 365.15199046 277.375 360.375 C275.60737909 358.19338864 275.60737909 358.19338864 273.38671875 358.14453125 C272.61972656 358.15871094 271.85273437 358.17289062 271.0625 358.1875 C270.30324219 358.19394531 269.54398438 358.20039063 268.76171875 358.20703125 C266.36466362 358.32176592 266.36466362 358.32176592 264.015625 358.8671875 C257.42127663 360.13533142 250.08974972 360.53846416 243.875 357.875 C241.14600708 355.14600708 239.13436544 352.29283566 237.16015625 348.984375 C235.35860081 347.06382489 235.35860081 347.06382489 232.08203125 346.87109375 C227.76996227 347.45724433 225.31238635 349.06445496 222 351.6875 C213.14907722 358.19400824 205.47717916 360.77381568 194.375 359.375 C191.80777437 358.51553751 189.5091188 357.51167805 187.1171875 356.25 C185.40205438 355.22539474 185.40205438 355.22539474 183.375 355.375 C183.21281982 354.82320068 183.05063965 354.27140137 182.88354492 353.70288086 C181.10400986 347.98177581 178.68159506 343.10373475 175.6875 337.9375 C172.25696448 331.74748806 169.70388607 326.59711847 171.375 319.375 C172.375 316.5625 172.375 316.5625 173.375 314.375 C173.54298262 311.66613059 173.54298262 311.66613059 173.375 309.375 C168.30556254 306.41510264 163.82927118 305.68937874 158.125 305 C149.94983205 303.86699433 143.36799136 302.03058296 136.625 297.09375 C134.68149266 294.4214274 134.91150894 292.5912249 135.375 289.375 C137.16796875 286.8828125 137.16796875 286.8828125 139.5625 284.5 C148.59883598 275.02321368 151.96321903 266.96985645 151.66796875 253.68359375 C151.27576388 249.25429345 150.65575063 246.45521575 147.375 243.375 C144.65706055 241.54325298 141.87147145 239.86024614 139.0625 238.171875 C131.65426208 233.21869267 127.78529742 224.74493578 125.375 216.375 C124.12018289 208.38379632 124.89611016 202.19992072 129.5703125 195.51171875 C142.52582996 180.17261042 168.43856042 173.4275462 187.61083984 171.58886719 C192.15784516 171.23705861 196.69093832 171.15112643 201.25 171.125 C202.63445312 171.0940625 202.63445312 171.0940625 204.046875 171.0625 C204.93632813 171.05734375 205.82578125 171.0521875 206.7421875 171.046875 C207.53737793 171.0375293 208.33256836 171.02818359 209.15185547 171.01855469 C211.96307346 171.46928808 213.32787003 172.42140393 215.375 174.375 C215.87890625 177.30078125 215.87890625 177.30078125 215.9375 180.6875 C216.23196405 187.47779167 216.23196405 187.47779167 219.375 193.375 C225.54954814 197.95530005 230.96691597 198.00290759 238.5 197.875 C239.6127832 197.86436523 240.72556641 197.85373047 241.87207031 197.84277344 C252.2558241 197.60284464 261.33804802 196.51895732 269.375 189.375 C272.33681005 184.88121924 273.35713776 180.66919024 272.375 175.375 C269.48960272 167.0907038 265.06332012 161.68395047 257.22167969 157.82202148 C253.3775976 156.2022668 249.97448544 155.99177846 245.7890625 155.96875 C244.73723282 155.95249573 244.73723282 155.95249573 243.66415405 155.93591309 C241.44267453 155.90194504 239.22170376 155.88612787 237 155.875 C215.83500271 155.76848032 215.83500271 155.76848032 208.5 150.1875 C203.50816701 143.58066222 203.02381037 137.49211074 202.87890625 129.42578125 C202.25581309 125.65341103 201.14413144 123.98575823 198.375 121.375 C193.81601652 120.24725146 189.65927832 121.61045895 185.7109375 123.9609375 C175.43910945 131.81221393 169.29908827 141.18667219 167.5 154.0625 C166.59618047 159.57891573 164.72087067 162.85417321 160.375 166.375 C155.60408848 169.53947884 151.11405755 170.97920293 145.375 171.375 C144.63636719 171.46136719 143.89773438 171.54773438 143.13671875 171.63671875 C135.7083153 172.16985775 129.37610831 169.75239072 123.375 165.375 C121.20768286 161.30809314 121.05358344 157.95518605 121.375 153.375 C121.70113281 152.52808594 122.02726562 151.68117188 122.36328125 150.80859375 C123.7415225 146.13108773 123.78204801 141.72701753 123.8125 136.875 C123.84537109 135.95074219 123.87824219 135.02648437 123.91210938 134.07421875 C123.9473819 129.59140093 123.89527746 126.38053796 121.01171875 122.80078125 C116.59523684 118.73761789 112.60761933 118.35754892 106.8125 117.9375 C101.33393729 117.49891764 98.30961585 116.50974853 94.5625 112.375 C92.74436694 107.78182175 93.14425761 103.25477427 93.375 98.375 C101.42869128 98.05285235 101.42869128 98.05285235 105.3125 99.375 C109.55048611 100.7588322 113.97401696 101.26883132 118.375 100.375 C120.55583296 98.29824149 121.30429714 97.03673453 121.625 94.03515625 C120.03853001 77.55074147 111.5211601 62.49851442 99.375 51.375 C87.24257913 41.89526728 74.70927853 38.06641005 59.625 35.6875 C57.74167969 35.36942383 57.74167969 35.36942383 55.8203125 35.04492188 C48.07383593 33.78432995 40.43636988 33.00487921 32.60839844 32.61010742 C29.76671779 32.40348265 27.15775037 31.94720868 24.375 31.375 C22.97427002 31.3002794 21.57064939 31.26663626 20.16796875 31.27734375 C19.41708984 31.28056641 18.66621094 31.28378906 17.89257812 31.28710938 C17.12365234 31.29548828 16.35472656 31.30386719 15.5625 31.3125 C14.77423828 31.31701172 13.98597656 31.32152344 13.17382812 31.32617188 C11.24085239 31.33788688 9.30791607 31.35582002 7.375 31.375 Z " fill="#5970F6" transform="translate(442.625,8.625)"/>
<path d="M0 0 C0.99 0.5775 1.98 1.155 3 1.75 C3.99 2.28625 4.98 2.8225 6 3.375 C12.36797986 8.41631739 17.26622485 14.81205413 18.4765625 22.95703125 C19.08720557 37.78922999 11.78664437 48.05346484 4.0012207 60.12353516 C-5.88200162 75.800888 -13.13206886 93.21658154 -19 110.75 C-19.32983887 111.73484375 -19.65967773 112.7196875 -19.99951172 113.734375 C-22.09645144 120.01432733 -22.09645144 120.01432733 -24.16113281 126.30493164 C-25.96005331 131.80354514 -27.93510265 137.17275207 -30.12280273 142.52807617 C-31.23655095 145.34917901 -32.10709794 148.20902594 -32.9375 151.125 C-34.20282785 155.35424757 -35.62145675 159.38698317 -37.375 163.4375 C-39.5453494 168.46392268 -41.31088877 173.5484216 -43 178.75 C-44.99670785 184.89332527 -47.21705876 190.82965969 -49.78515625 196.76171875 C-51.18637349 200.20844284 -52.35617458 203.71211103 -53.5 207.25 C-55.3202411 212.87490748 -57.42530353 218.30487491 -59.75390625 223.73828125 C-61.56641707 228.11898921 -63.11513145 232.58326443 -64.6875 237.0546875 C-66.06315687 240.92781666 -67.48950724 244.77850599 -68.9375 248.625 C-69.18806152 249.29168701 -69.43862305 249.95837402 -69.69677734 250.64526367 C-70.97074638 254.03043953 -72.25178155 257.41283395 -73.5390625 260.79296875 C-76.01757171 267.32261315 -78.40228143 273.85756206 -80.5625 280.5 C-82.37016649 286.02117943 -84.45601265 291.32272941 -86.75 296.65625 C-88.61212844 301.2650179 -90.09992393 305.98118732 -91.59375 310.71875 C-92.67869193 313.98329674 -93.97558909 317.12925726 -95.31640625 320.296875 C-97.99568863 326.64541526 -100.38733229 333.0813389 -102.73413086 339.55914307 C-103.45729764 341.55462904 -104.18418742 343.54872451 -104.91210938 345.54248047 C-105.86390652 348.14945322 -106.81497321 350.75668921 -107.76513672 353.36425781 C-109.84865294 359.07683254 -111.95021163 364.78113439 -114.12451172 370.45996094 C-114.78832679 372.19632048 -115.44809199 373.93422898 -116.10595703 375.67285156 C-122.97441395 393.77446314 -130.52978068 411.33899362 -139 428.75 C-139.66225586 430.11560059 -139.66225586 430.11560059 -140.33789062 431.50878906 C-145.82545242 442.70427931 -150.81980079 452.07883082 -163 456.75 C-171.67197994 459.2709244 -180.45048831 457.48895254 -188.421875 453.5546875 C-200.65328713 445.49882641 -205.13745661 426.8585414 -210 413.75 C-210.48278787 412.46864257 -210.96586086 411.18739252 -211.44921875 409.90625 C-211.96727531 408.52125529 -212.48414467 407.13581609 -213 405.75 C-213.27432861 405.01305908 -213.54865723 404.27611816 -213.83129883 403.5168457 C-217.04435343 394.7827677 -220.05134584 385.97699129 -223.06347656 377.17211914 C-223.99476081 374.45279827 -224.93094233 371.73519428 -225.8671875 369.01757812 C-228.87126547 360.26029108 -231.73397131 351.51578072 -234.20361328 342.59106445 C-235.16115577 339.17508592 -236.26855941 335.84907547 -237.4375 332.5 C-239.54163962 326.29022209 -241.34239438 320.04187248 -243.05664062 313.71484375 C-244.54677256 308.26179129 -246.1998063 302.87881651 -247.9375 297.5 C-250.49372705 289.56835967 -252.73286556 281.57390513 -254.88818359 273.52490234 C-256.18598969 268.69042491 -257.53983148 263.89480499 -259.0625 259.125 C-260.98613288 253.0295378 -262.49274362 246.85661257 -264.01074219 240.65112305 C-265.47838753 234.70384894 -267.09419933 228.81683436 -268.8125 222.9375 C-271.18924045 214.79776532 -273.34026235 206.61032105 -275.42565918 198.3918457 C-278.17230054 187.56904375 -281.08920146 176.83946145 -284.42553711 166.18017578 C-286.63450495 159.0821178 -288.60103983 151.93676883 -290.5 144.75 C-292.66791301 136.54639945 -294.97379026 128.41286945 -297.5 120.3125 C-301.11521095 108.67000388 -304.17691677 96.90644655 -307.15478516 85.08691406 C-307.97899372 81.83293293 -308.82116499 78.58410265 -309.66796875 75.3359375 C-321.46702395 29.75568207 -321.46702395 29.75568207 -314.3203125 16.63671875 C-311.90170767 13.18054675 -309.28411312 10.39699518 -306 7.75 C-305.37609375 7.24082031 -304.7521875 6.73164063 -304.109375 6.20703125 C-297.09350456 1.42713478 -289.10846899 1.85458625 -281 2.75 C-277.61503287 3.63140418 -274.93026855 4.85950416 -272 6.75 C-270.948125 7.389375 -269.89625 8.02875 -268.8125 8.6875 C-259.23934145 17.62597401 -257.96158046 33.24011721 -255.65185547 45.36572266 C-252.64158531 60.99432375 -249.34373296 76.44558417 -244.56640625 91.6328125 C-242.69525264 97.62288011 -241.10546511 103.68437274 -239.5 109.75 C-237.44726807 117.47506407 -235.33128943 125.16668075 -233 132.8125 C-227.65934882 150.36670968 -222.87197432 168.03468858 -218.48901367 185.8515625 C-216.75181449 192.87300843 -214.87897496 199.82030431 -212.76855469 206.73779297 C-211.20447919 211.90999354 -209.89509705 217.12362733 -208.625 222.375 C-206.09374915 232.79085824 -202.9469768 242.99161551 -199.77392578 253.2265625 C-198.43343696 257.59731722 -197.19376719 261.99445706 -195.953125 266.39453125 C-194.66343647 270.93486914 -193.32336576 275.45984563 -191.98022461 279.98461914 C-190.87407172 283.72544955 -189.79505812 287.47058565 -188.76953125 291.234375 C-185.04705445 304.78883317 -180.63534019 318.08661821 -176.13842773 331.3996582 C-175.88127487 332.1619725 -175.62412201 332.9242868 -175.35917664 333.70970154 C-174.875455 335.14188733 -174.39014895 336.57353943 -173.90290833 338.00453186 C-172.47538281 342.22490203 -171.19256448 346.45913354 -170 350.75 C-167.87899016 348.62899016 -167.35020567 347.38787795 -166.35180664 344.61083984 C-166.04130875 343.75589935 -165.73081085 342.90095886 -165.41090393 342.02011108 C-165.0806572 341.0930838 -164.75041046 340.16605652 -164.41015625 339.2109375 C-164.06496445 338.25611481 -163.71977264 337.30129211 -163.36412048 336.3175354 C-162.25829183 333.25523345 -161.16023833 330.19021026 -160.0625 327.125 C-158.96657672 324.08186665 -157.86909968 321.03929655 -156.77159119 317.99673462 C-156.08909901 316.1028171 -155.40784972 314.20845107 -154.7280426 312.31356812 C-153.09641445 307.76772513 -151.44254613 303.23239116 -149.73826599 298.71328735 C-148.39017302 295.12827338 -147.07227323 291.53209901 -145.75 287.9375 C-145.30092285 286.71776489 -145.30092285 286.71776489 -144.84277344 285.47338867 C-143.89495511 282.89900934 -142.94743851 280.32451914 -142 277.75 C-140.75027557 274.35406515 -139.5002327 270.95824776 -138.25 267.5625 C-137.82799316 266.41527466 -137.82799316 266.41527466 -137.39746094 265.24487305 C-135.17996849 259.22209485 -132.928103 253.21272276 -130.66479492 247.20703125 C-126.4766479 236.08037904 -122.38835911 224.91819537 -118.3125 213.75 C-117.31400117 211.01520248 -116.31529758 208.28048016 -115.31620789 205.54589844 C-114.70142751 203.86309085 -114.08699154 202.18015737 -113.47297668 200.49707031 C-111.21090128 194.30353878 -108.89849287 188.12991367 -106.5703125 181.9609375 C-103.69777015 174.34275472 -100.88707211 166.7085822 -98.17578125 159.03125 C-97.32870574 156.66731834 -96.46297489 154.31680726 -95.57421875 151.96875 C-93.7997715 147.25792782 -92.15003098 142.5055478 -90.5 137.75 C-87.20780192 128.26156885 -87.20780192 128.26156885 -85.46875 123.6875 C-83.85196182 119.41609145 -82.42182236 115.08952033 -81 110.75 C-79.33930025 105.68140596 -77.61015348 100.66037108 -75.71435547 95.67480469 C-74.13050988 91.40719066 -72.78331068 87.05565075 -71.37890625 82.7265625 C-69.7826614 77.98922219 -67.89517557 73.37417579 -66 68.75 C-65.66911377 67.93885742 -65.33822754 67.12771484 -64.99731445 66.29199219 C-57.99652795 49.26700446 -50.29529059 33.11673667 -39.8125 17.9375 C-39.24249268 17.10726318 -38.67248535 16.27702637 -38.08520508 15.42163086 C-29.17515883 2.88580695 -16.05701549 -6.47287261 0 0 Z " fill="#5870F6" transform="translate(1194,151.25)"/>
<path d="M0 0 C0.68368652 -0.00199402 1.36737305 -0.00398804 2.07177734 -0.00604248 C18.08774451 -0.0007551 33.029785 2.5865279 47.625 9.375 C47.625 10.035 47.625 10.695 47.625 11.375 C49.275 11.705 50.925 12.035 52.625 12.375 C52.625 13.035 52.625 13.695 52.625 14.375 C53.429375 14.7153125 53.429375 14.7153125 54.25 15.0625 C57.44960161 16.83070089 59.91537223 18.91170203 62.625 21.375 C62.625 22.035 62.625 22.695 62.625 23.375 C63.285 23.375 63.945 23.375 64.625 23.375 C69.82647159 30.00570477 73.31093051 37.37342383 76 45.3125 C76.2381543 46.0019873 76.47630859 46.69147461 76.72167969 47.40185547 C80.8604049 60.40031928 80.91701539 73.74354025 80.92996025 87.23668098 C80.93367599 90.35415363 80.95054016 93.47132263 80.97071838 96.58872986 C81.02565095 105.44166393 81.05679073 114.29463978 81.08129883 123.14770508 C81.09726414 128.59100299 81.12756498 134.03407985 81.16606331 139.4772625 C81.17762198 141.53468908 81.18364285 143.59215528 81.18374443 145.64961433 C80.83928366 165.778843 80.83928366 165.778843 88.63671875 183.88671875 C89.625 185.375 89.625 185.375 89.625 187.375 C90.615 187.705 91.605 188.035 92.625 188.375 C94.796875 189.859375 94.796875 189.859375 96.625 192.375 C97.11477658 195.472912 97.00200752 198.49866099 96.875 201.625 C96.85695313 202.46546875 96.83890625 203.3059375 96.8203125 204.171875 C96.77330798 206.24007395 96.70156724 208.30768441 96.625 210.375 C88.99232878 210.611062 82.03012195 210.27071122 74.625 208.375 C73.76777344 208.16875 72.91054687 207.9625 72.02734375 207.75 C61.50348493 204.95633612 56.15600676 199.71495864 50.625 190.375 C49.92093905 188.72378214 49.24207146 187.06065863 48.625 185.375 C45.50714887 186.02144661 45.50714887 186.02144661 44.625 188.375 C43.965 188.375 43.305 188.375 42.625 188.375 C42.625 189.035 42.625 189.695 42.625 190.375 C24.68528935 207.19536951 0.92378939 211.22963465 -22.921875 210.51123047 C-32.5385549 209.97718316 -41.06850497 207.21726553 -49.375 202.375 C-49.375 201.715 -49.375 201.055 -49.375 200.375 C-49.95636719 200.10816406 -50.53773437 199.84132813 -51.13671875 199.56640625 C-63.16659585 193.16306853 -70.93738575 180.07562706 -75.1875 167.5625 C-78.2696493 155.19867823 -77.64381024 140.33162128 -73.375 128.375 C-72.941875 127.158125 -72.50875 125.94125 -72.0625 124.6875 C-69.83561333 120.31620394 -67.2118454 116.37084162 -64.375 112.375 C-63.88386719 111.64152344 -63.39273437 110.90804687 -62.88671875 110.15234375 C-49.2701728 90.99457314 -24.43275528 81.36126567 -2.0625 77.5625 C11.62052297 75.4863974 25.36150482 74.93346091 38.625 79.375 C39.72199219 79.73851562 40.81898437 80.10203125 41.94921875 80.4765625 C42.83222656 80.77304687 43.71523437 81.06953125 44.625 81.375 C43.0234035 62.76933485 43.0234035 62.76933485 34.625 46.375 C34.00625 45.488125 33.3875 44.60125 32.75 43.6875 C30.29921865 41.02047324 27.92831268 39.80143048 24.625 38.375 C24.625 37.715 24.625 37.055 24.625 36.375 C2.62442271 31.27693519 -20.05955328 31.40870164 -40.375 42.375 C-42.91384571 44.16079825 -45.28022696 46.00064981 -47.60546875 48.0546875 C-49.375 49.375 -49.375 49.375 -52.375 49.375 C-54.25996257 45.61040283 -56.12913844 41.83850251 -57.98413086 38.05908203 C-58.61722376 36.77473839 -59.25456703 35.49248074 -59.89624023 34.21240234 C-60.8184212 32.37089768 -61.72500391 30.52240647 -62.62890625 28.671875 C-63.17877197 27.56166992 -63.7286377 26.45146484 -64.29516602 25.30761719 C-65.375 22.375 -65.375 22.375 -65.20898438 20.10205078 C-61.90998713 13.27034513 -47.53717445 8.87981008 -40.58569336 6.39648438 C-38.52266225 5.69769615 -36.45204601 5.03085736 -34.375 4.375 C-33.73240234 4.16327148 -33.08980469 3.95154297 -32.42773438 3.73339844 C-21.76445161 0.35222687 -11.09621291 0.00857169 0 0 Z " fill="#5A70F6" transform="translate(2000.375,398.625)"/>
<path d="M0 0 C12.54 0 25.08 0 38 0 C45.64092016 22.88281542 53.24312452 45.77728187 60.7746582 68.69628906 C61.80801189 71.84076715 62.84221756 74.98496298 63.87719727 78.12890625 C69.67005299 95.72593456 75.43858918 113.32806874 81 131 C81.64080927 129.74123882 82.27896121 128.48112465 82.91601562 127.22045898 C83.27167603 126.51888168 83.62733643 125.81730438 83.99377441 125.09446716 C85.40375777 122.15957474 86.45516385 119.14406067 87.5 116.0625 C89.66928574 109.83990054 92.17241326 103.90776677 94.9609375 97.9453125 C97.06522039 93.34955867 98.83548022 88.71217754 100.5 83.9375 C101.82043125 80.16541439 103.11863019 76.52756839 105 73 C106.83964871 69.54881903 108.09838315 66.00818382 109.375 62.3125 C111.03655205 57.52211762 112.88122741 52.95182637 115.0625 48.375 C117.50868128 43.23864492 119.35954172 38.09994844 121.078125 32.68359375 C121.86595261 30.39021421 122.73689526 28.3816142 123.875 26.25 C126.34056619 21.63071789 128.03594173 16.72617629 129.80615234 11.80957031 C131.29286372 7.72086508 132.97299965 3.86152589 135 0 C138.3 0 141.6 0 145 0 C151.76346346 15.43578833 158.35656666 30.93331146 164.8125 46.5 C166.13109125 49.67343709 167.45037366 52.84658621 168.76974487 56.0196991 C169.6385291 58.10914729 170.50712314 60.19867458 171.3755188 62.2882843 C174.89812194 70.76266271 178.4436636 79.22723492 182 87.6875 C188.05612214 102.10188698 194.03753573 116.54667443 200 131 C203.51721612 123.6675597 206.06099823 116.10307967 208.5625 108.375 C212.87085306 95.11188974 212.87085306 95.11188974 214.62109375 91.1640625 C216.21426276 87.5083489 217.36644907 83.817507 218.5 80 C219.6841955 76.01193514 220.89553737 72.11542584 222.56640625 68.30078125 C223.74520917 65.58664375 224.65768428 63.03067906 225.4375 60.1875 C226.42936404 56.75730352 227.56731579 53.48450576 228.9375 50.1875 C230.52453581 46.34361478 231.80884938 42.48451561 233 38.5 C234.44564281 33.66418307 236.13535829 29.04410853 238.0703125 24.38671875 C239.00399992 21.98973129 239.73726669 19.59941994 240.4375 17.125 C242.22024302 11.27760289 244.64880033 5.64287921 247 0 C258.55 0 270.1 0 282 0 C280.33173 5.56090002 278.67298322 11.03888801 276.8125 16.5234375 C275.84264204 19.47963916 274.95585706 22.45731668 274.0625 25.4375 C272.59164589 30.25272961 270.9178934 34.89839141 269 39.55078125 C266.3207832 46.11276926 264.03909253 52.77614518 262 59.5625 C260.55743312 64.33536776 258.90740056 68.92944649 257.00390625 73.53515625 C253.22364038 82.81666505 250.1233586 92.3579368 247.16162109 101.92602539 C243.80316608 112.77098473 243.80316608 112.77098473 241.73828125 118.03125 C240.78312114 120.57834362 239.96216309 123.16179859 239.125 125.75 C237.38924577 131.02376668 235.32625546 136.09567313 233.15625 141.203125 C231.14290808 146.07323586 229.58594752 151.05012423 228.0703125 156.09375 C226.28963507 162.00173403 224.36478792 167.71813644 221.99609375 173.4140625 C220.85978737 176.36400299 219.95891518 179.34374866 219.0625 182.375 C217.43064439 187.83816879 215.42933979 193.02326335 213.1484375 198.24609375 C211.94798658 201.12472606 210.95313173 204.0313007 210 207 C206.7 207 203.4 207 200 207 C194.69892219 195.75706909 189.78703511 184.3540841 184.875 172.9375 C184.02054367 170.95494621 183.16596894 168.97244345 182.3112793 166.98999023 C177.3385593 155.4516552 172.38157029 143.9066307 167.44042969 132.35473633 C162.52712812 120.87577374 157.56637138 109.41736453 152.60473633 97.95922852 C148.717459 88.98089409 144.8461909 79.99602294 141 71 C140.54753906 71.92425781 140.54753906 71.92425781 140.0859375 72.8671875 C139 75 139 75 137.625 77.125 C135.77054129 80.40596541 134.46509232 83.75010601 133.1015625 87.2578125 C131.98079898 90.04779829 130.76037307 92.77048041 129.5 95.5 C126.67344845 101.65292014 124.16845137 107.89910983 121.78125 114.234375 C119.75559186 119.59495813 117.69162988 124.7797889 115.02734375 129.8515625 C113.69714161 132.63335404 112.64285694 135.48731696 111.5625 138.375 C109.71638273 143.29042879 107.59674452 147.89291428 105.1796875 152.546875 C103.94535887 155.1136246 102.99280872 157.68402435 102.0625 160.375 C100.66449348 164.38863161 99.01081366 168.09765719 97.0625 171.875 C94.96983757 175.93507823 93.19727843 179.96196791 91.625 184.25 C88.70029669 192.14190433 84.86145094 199.53580576 81 207 C78.03 207 75.06 207 72 207 C68.67930911 199.25157925 65.6638888 191.46544736 62.953125 183.484375 C62.40080452 181.87533043 62.40080452 181.87533043 61.83732605 180.23377991 C61.04864124 177.93558352 60.26158759 175.63682681 59.4760437 173.33755493 C57.36422261 167.15810622 55.23887823 160.98331495 53.11328125 154.80859375 C52.78972247 153.86816758 52.78972247 153.86816758 52.45962715 152.9087429 C48.19473228 140.51612369 43.83287841 128.15932651 39.4375 115.8125 C32.68359619 96.82904179 26.05738256 77.80361296 19.48852539 58.75537109 C16.01695597 48.69243875 12.531634 38.6353457 8.9765625 28.6015625 C8.665979 27.72386703 8.35539551 26.84617157 8.03540039 25.94187927 C6.59852114 21.88322832 5.15663847 17.82647791 3.70605469 13.77270508 C3.20751976 12.36805898 2.70913722 10.96335878 2.2109375 9.55859375 C1.78087402 8.35517334 1.35081055 7.15175293 0.90771484 5.91186523 C0 3 0 3 0 0 Z " fill="#5A70F6" transform="translate(1623,402)"/>
<path d="M0 0 C11.88 0 23.76 0 36 0 C36.33 34.32 36.66 68.64 37 104 C39.31 101.36 41.62 98.72 44 96 C62.54354317 81.18453209 84.22637029 77.68384998 107.40429688 80.26806641 C119.31362949 82.24456832 130.6931671 88.32207148 139 97 C139.9075 97.680625 140.815 98.36125 141.75 99.0625 C144.10171348 101.08758661 144.67587628 101.97484531 145 105 C145.66 105 146.32 105 147 105 C147 105.99 147 106.98 147 108 C147.66 108 148.32 108 149 108 C149.33 109.65 149.66 111.3 150 113 C150.66 113 151.32 113 152 113 C155.12830534 120.17763458 157.37370219 127.34210316 159 135 C159.16465193 135.73729497 159.32930386 136.47458994 159.49894524 137.23422718 C161.07894298 144.93052003 161.27112111 152.35382319 161.22705078 160.19213867 C161.2264853 161.582906 161.2268059 162.97367393 161.22793579 164.36444092 C161.22850495 168.10545933 161.21682215 171.84634706 161.20278788 175.58733535 C161.19020698 179.50973949 161.18910426 183.43214728 161.18673706 187.35456848 C161.18054377 194.7667927 161.16416235 202.17895728 161.14403808 209.59115535 C161.12161177 218.03622321 161.11066879 226.48129406 161.10064721 234.92638433 C161.07979399 252.28429681 161.04314494 269.64212763 161 287 C149.12 287 137.24 287 125 287 C124.98541748 283.02976807 124.97083496 279.05953613 124.95581055 274.96899414 C124.90530851 261.80142251 124.83883308 248.63397126 124.76428509 235.46651554 C124.7195041 227.48883964 124.68004976 219.51120662 124.65356445 211.53344727 C124.63043984 204.5721892 124.59688368 197.61106889 124.55129844 190.6499204 C124.52755903 186.97114842 124.50870513 183.2925112 124.50238609 179.61366463 C125.26278908 152.87901908 125.26278908 152.87901908 117 128 C117 127.34 117 126.68 117 126 C116.34 126 115.68 126 115 126 C113.95760439 124.80657548 112.96590275 123.56863796 112 122.3125 C105.76849067 115.02305327 97.37968477 111.96985409 88 111 C76.03717847 110.085196 66.52739316 112.45926676 56 118 C55.34 118 54.68 118 54 118 C54 118.66 54 119.32 54 120 C53.113125 120.391875 52.22625 120.78375 51.3125 121.1875 C47.78729309 123.1163868 45.69561863 125.03481951 43 128 C42.49527601 128.42283799 41.99055202 128.84567598 41.47053337 129.28132725 C37.43647178 133.03512374 36.5482542 136.14678868 36.24050903 141.61228943 C36.20538677 144.32848535 36.20225057 147.03263808 36.22705078 149.74780273 C36.2188729 151.2463693 36.2080664 152.74492347 36.19483948 154.24345398 C36.16646855 158.29688724 36.17473344 162.34950586 36.18970728 166.40297961 C36.19910204 170.64447627 36.1746231 174.8857761 36.15377808 179.12721252 C36.1194637 187.15231305 36.11549651 195.1771285 36.12250316 203.20228773 C36.12899952 212.34141942 36.10155694 221.48035135 36.07130075 230.61942375 C36.00984025 249.41303156 35.99535933 268.20628424 36 287 C24.12 287 12.24 287 0 287 C0 192.29 0 97.58 0 0 Z " fill="#5970F6" transform="translate(1433,319)"/>
<path d="M0 0 C12.21 0 24.42 0 37 0 C38.98 5.28 40.96 10.56 43 16 C44.4677305 19.66995057 44.4677305 19.66995057 45.9453125 23.3359375 C47.29695069 26.75007544 48.58844022 30.18596621 49.875 33.625 C50.12950928 34.30530273 50.38401855 34.98560547 50.64624023 35.68652344 C51.95013854 39.17719765 53.24849331 42.66988403 54.54296875 46.1640625 C57.78155384 54.88492444 61.13855677 63.53708511 64.90625 72.046875 C66.12748091 74.80685685 67.1282435 77.46167658 67.9375 80.375 C68.75025233 83.1479197 69.60250771 85.41545647 70.8125 88 C72.68808402 92.07189987 74.12340789 96.23947116 75.5 100.5 C77.1133742 105.48304081 78.89360024 110.28752772 81.1015625 115.0390625 C83.45134722 120.16772307 85.18030327 125.5213617 86.9375 130.875 C88.45580377 135.47627173 90.1228617 139.97551073 91.97265625 144.453125 C92.87017602 146.678155 93.72417527 148.91204308 94.56420898 151.15917969 C94.83337631 151.87869812 95.10254364 152.59821655 95.37986755 153.33953857 C95.58451126 153.88749084 95.78915497 154.43544312 96 155 C105.23073354 128.86209202 114.2018907 102.64018042 123.0625 76.375 C123.32112823 75.60835777 123.57975647 74.84171555 123.84622192 74.05184174 C125.14106532 70.21336842 126.43574933 66.37484135 127.73043823 62.53631592 C128.10874094 61.41473713 128.10874094 61.41473713 128.49468613 60.27050018 C128.99942949 58.77401505 129.50414208 57.27751955 130.00882339 55.78101349 C136.28602036 37.16905774 142.63700819 18.58282836 149 0 C161.21 0 173.42 0 186 0 C185.30873018 3.45634908 184.62982151 6.30683711 183.4597168 9.56005859 C183.1431311 10.44551361 182.82654541 11.33096863 182.50036621 12.24325562 C182.15348755 13.20196564 181.80660889 14.16067566 181.44921875 15.1484375 C181.08372925 16.16700836 180.71823975 17.18557922 180.3416748 18.23501587 C179.12717468 21.61630185 177.90743043 24.99566977 176.6875 28.375 C175.82638107 30.76815804 174.96546335 33.16138848 174.10473633 35.5546875 C167.34873536 54.32413412 160.53310462 73.07192624 153.70483398 91.81518555 C147.58801254 108.60908121 141.51211423 125.41740383 135.45428467 142.23263931 C118.76994119 188.54284402 118.76994119 188.54284402 110.46965027 211.22860718 C108.71565482 216.02589434 106.98408052 220.83049538 105.265625 225.640625 C97.66863853 246.71896007 97.66863853 246.71896007 92 253 C91.34 253 90.68 253 90 253 C89.7525 253.61875 89.505 254.2375 89.25 254.875 C87.79371361 257.35068687 86.62187494 257.95125002 84 259 C84 259.66 84 260.32 84 261 C65.91715183 275.40666475 43.91303828 282 21 282 C21 271.44 21 260.88 21 250 C24.031875 249.608125 27.06375 249.21625 30.1875 248.8125 C41.56007041 247.19761348 51.11246706 243.93251976 61 238 C61.66 238 62.32 238 63 238 C63.226875 237.443125 63.45375 236.88625 63.6875 236.3125 C65 234 65 234 67.3125 231.875 C72.63596249 226.18013315 75.30364333 220.47390411 75.5625 212.625 C74.86224371 194.76846464 69.1815286 178.3515922 62.25 162.0625 C60.41798878 157.57407251 58.85061445 152.99941501 57.24609375 148.42578125 C56.10819346 145.29744723 54.87247738 142.24690403 53.5625 139.1875 C51.5138773 134.37098895 49.72031747 129.50273038 48 124.5625 C43.56963207 111.42368587 43.56963207 111.42368587 37.875 98.8125 C35.98978098 95.21481112 34.93635994 91.56950569 33.83203125 87.671875 C32.63272348 83.82057681 31.03689322 80.17143384 29.453125 76.46484375 C27.73042632 72.35722621 26.10848043 68.21589602 24.5 64.0625 C24.20085693 63.29107666 23.90171387 62.51965332 23.59350586 61.72485352 C22.24665079 58.24465062 20.9091469 54.76122904 19.58203125 51.2734375 C17.80553623 46.6053552 16.02792985 41.97486711 13.9375 37.4375 C11.94120522 33.06008252 10.48523048 28.55610008 9 23.984375 C6.68485511 17.07511447 3.80095027 10.41743135 0.734375 3.8125 C0 2 0 2 0 0 Z " fill="#5A70F6" transform="translate(2272,403)"/>
<path d="M0 0 C0.84691406 0.23847656 1.69382812 0.47695313 2.56640625 0.72265625 C9.86518472 2.96740027 16.93187951 6.12246478 24 9 C23.49747277 13.47533681 22.97861564 17.69171795 21.625 22 C21.36074219 22.84304688 21.09648438 23.68609375 20.82421875 24.5546875 C19.85983392 27.41584817 18.78666687 30.22451703 17.6953125 33.0390625 C16.53869298 36.30098947 15.7821491 39.63074236 15 43 C14.34 43 13.68 43 13 43 C13 42.34 13 41.68 13 41 C12.22269531 40.62488281 12.22269531 40.62488281 11.4296875 40.2421875 C9.53511312 39.27357873 7.67084698 38.24561586 5.8203125 37.1953125 C-8.95594005 28.84028042 -24.67279454 23.64286909 -41.625 28.25 C-47.88761865 30.49489178 -52.56685606 34.06021104 -57 39 C-59.09829169 45.29487508 -58.94903419 52.58922809 -56.4375 58.75 C-52.03313971 66.96087956 -46.29410249 72.0626343 -38 76.125 C-37.16839355 76.54821533 -36.33678711 76.97143066 -35.47998047 77.4074707 C-29.28016164 80.50975416 -22.96099378 83.10189378 -16.4921875 85.578125 C2.38773275 93.26525137 20.88586836 105.19742158 30 124 C35.87388913 139.4889938 36.1161408 156.87504806 30.07421875 172.375 C22.93256829 186.9179973 9.31869961 196.67405118 -5.609375 201.93359375 C-26.84365371 208.61211689 -50.66629357 208.19646705 -72 202 C-73.68222656 201.53207031 -73.68222656 201.53207031 -75.3984375 201.0546875 C-93.48428689 195.52199836 -93.48428689 195.52199836 -97.40625 190.03125 C-98.26178734 187.10441174 -97.13807929 185.12394025 -95.9921875 182.40625 C-94.85252562 179.64234559 -93.92594702 176.84244201 -93 174 C-88.94205539 161.73323615 -88.94205539 161.73323615 -86 156 C-84.78763672 156.72316406 -84.78763672 156.72316406 -83.55078125 157.4609375 C-82.48214844 158.09257813 -81.41351562 158.72421875 -80.3125 159.375 C-79.25675781 160.00148438 -78.20101563 160.62796875 -77.11328125 161.2734375 C-74.442809 162.75442713 -71.86067949 163.94913815 -69 165 C-69 165.66 -69 166.32 -69 167 C-66.9273436 167.69088547 -64.85456157 168.38139568 -62.78125 169.0703125 C-60.82084831 169.72561531 -58.86271119 170.38771209 -56.90625 171.0546875 C-55.34390625 171.58449219 -55.34390625 171.58449219 -53.75 172.125 C-52.77546875 172.45757813 -51.8009375 172.79015625 -50.796875 173.1328125 C-39.37287926 176.67488939 -26.80465817 176.26422443 -16 171 C-10.1920557 167.31438829 -6.99856917 162.99427667 -5.3125 156.25 C-4.37508518 146.5008859 -4.95128363 138.70701414 -10.79296875 130.47265625 C-13.1818249 127.79629175 -15.6438594 125.83077235 -18.5625 123.75 C-19.51253906 123.06421875 -20.46257812 122.3784375 -21.44140625 121.671875 C-23.95794583 119.87278763 -23.95794583 119.87278763 -27 119 C-27 118.34 -27 117.68 -27 117 C-28.175625 116.62875 -28.175625 116.62875 -29.375 116.25 C-30.57125 115.8375 -31.7675 115.425 -33 115 C-33.64582031 114.77828125 -34.29164062 114.5565625 -34.95703125 114.328125 C-47.54356111 109.65501759 -59.30985454 102.53985617 -71 96 C-71 95.34 -71 94.68 -71 94 C-71.56074219 93.75121094 -72.12148437 93.50242187 -72.69921875 93.24609375 C-85.18481601 86.48394515 -91.90120569 74.0456249 -96 61 C-96.33 60.01 -96.66 59.02 -97 58 C-97.81958872 39.96904812 -97.81958872 39.96904812 -95 32 C-94.69320313 31.13246094 -94.38640625 30.26492188 -94.0703125 29.37109375 C-88.04372705 14.4293181 -76.16938626 6.38859883 -62 0 C-42.69748014 -7.2254027 -19.47175509 -5.77175802 0 0 Z " fill="#5A70F6" transform="translate(1361,403)"/>
<path d="M0 0 C1.47193085 0.41993321 2.94601116 0.83238686 4.421875 1.23828125 C11.90024016 3.31265454 19.01088781 5.56898129 26 9 C25.34482135 14.48166138 24.12976022 19.63053317 22.625 24.9375 C22.41617188 25.69740234 22.20734375 26.45730469 21.9921875 27.24023438 C20.58186485 32.27525823 18.89597704 37.12700637 17 42 C12.73208367 40.48557808 8.91503006 38.34515148 4.98828125 36.12109375 C3.67666798 35.38153971 2.34677973 34.67338987 1 34 C1 33.34 1 32.68 1 32 C0.360625 31.896875 -0.27875 31.79375 -0.9375 31.6875 C-3.52860254 31.10582392 -5.87632276 30.37560484 -8.375 29.5 C-20.66217987 25.37746011 -34.57652119 25.31242336 -46.28515625 31.13671875 C-51.0129106 33.85667906 -53.97678696 36.48769425 -55.55078125 41.890625 C-57.03014883 48.83722061 -56.13272622 55.64206856 -53 62 C-50.76131878 65.18788205 -48.52679405 68.23660297 -45 70 C-45 70.66 -45 71.32 -45 72 C-44.236875 72.20625 -43.47375 72.4125 -42.6875 72.625 C-38.41873957 74.21674118 -34.64063899 76.33659392 -30.66796875 78.55078125 C-27.52290332 80.259155 -24.3135649 81.65002911 -21 83 C-13.29452104 86.18683389 -6.01931308 90.10325664 1.29492188 94.08642578 C2.70848078 94.84380514 4.14115165 95.56538877 5.578125 96.27734375 C19.70373381 103.41636547 28.70122297 115.46590747 34.0546875 130.01953125 C38.72113165 144.73232831 36.14502334 160.79973558 31 175 C30.34 175 29.68 175 29 175 C28.67 176.65 28.34 178.3 28 180 C27.34 180 26.68 180 26 180 C25.7525 180.7425 25.505 181.485 25.25 182.25 C23.89534961 185.23023087 22.4898459 186.89919252 20 189 C19.34 189 18.68 189 18 189 C18 189.66 18 190.32 18 191 C-7.83317036 206.53761487 -36.17190169 210.19065199 -65.68359375 203.1484375 C-72.9936123 201.25960182 -80.00637204 198.82747749 -87 196 C-87 195.34 -87 194.68 -87 194 C-88.98 193.67 -90.96 193.34 -93 193 C-93 192.34 -93 191.68 -93 191 C-93.99 190.67 -94.98 190.34 -96 190 C-94.05413104 181.96340299 -91.27290664 174.57989114 -88 167 C-87.22238883 165.08607315 -86.45100683 163.16959695 -85.6875 161.25 C-85.36136719 160.43015625 -85.03523438 159.6103125 -84.69921875 158.765625 C-84.46847656 158.18296875 -84.23773437 157.6003125 -84 157 C-78.25 158.875 -78.25 158.875 -76 160 C-76 160.66 -76 161.32 -76 162 C-75.2265625 162.1546875 -75.2265625 162.1546875 -74.4375 162.3125 C-71.13973565 163.24263866 -68.13366668 164.61395512 -65 166 C-65 166.66 -65 167.32 -65 168 C-64.27296875 168.12503906 -63.5459375 168.25007812 -62.796875 168.37890625 C-60.08334952 168.98149082 -57.79521566 169.83540498 -55.25 170.9375 C-42.66761608 176.02596409 -29.91216069 176.79548798 -16.92578125 172.33984375 C-11.11956839 169.68092384 -6.5464351 165.92972682 -4 160 C-1.75649555 151.02598219 -2.00458554 142.50581339 -6.41796875 134.3515625 C-10.15255738 128.80039619 -13.8537645 125.00390028 -19.5625 121.5 C-20.1716626 121.11763184 -20.7808252 120.73526367 -21.40844727 120.34130859 C-28.11633415 116.19797148 -35.08841255 112.65683343 -42.34765625 109.58203125 C-46.30376771 107.86842147 -50.14963129 105.99874863 -54 104.0625 C-54.67289063 103.72798828 -55.34578125 103.39347656 -56.0390625 103.04882812 C-60.44847819 100.83986409 -64.73756607 98.48086975 -69 96 C-69 95.34 -69 94.68 -69 94 C-69.556875 93.773125 -70.11375 93.54625 -70.6875 93.3125 C-73.67961603 91.61427198 -75.61600535 89.49235804 -78 87 C-78.91652344 86.20142578 -78.91652344 86.20142578 -79.8515625 85.38671875 C-89.29711842 76.87113069 -94.49076912 64.89268005 -95.2109375 52.31640625 C-95.72416291 37.05344915 -92.37554172 24.85787174 -81.875 13.3125 C-60.42215751 -6.56713404 -26.75473916 -8.79490894 0 0 Z " fill="#5A70F6" transform="translate(2221,403)"/>
<path d="M0 0 C2.4165478 0.62545943 4.83321274 1.25046648 7.25 1.875 C13.93380973 3.79563498 19.91818402 6.65834287 26 10 C19.30747729 36.22152341 19.30747729 36.22152341 17 41 C15.515 41.495 15.515 41.495 14 42 C13.34 41.67 12.68 41.34 12 41 C12 40.34 12 39.68 12 39 C11.01 39 10.02 39 9 39 C9 38.34 9 37.68 9 37 C8.42636719 36.88398438 7.85273438 36.76796875 7.26171875 36.6484375 C4.81333563 35.9464831 2.99224838 34.93523127 0.8125 33.625 C-10.50219661 27.2071557 -24.01275178 25.13680966 -36.84765625 27.53125 C-42.63940066 29.13861195 -47.44191067 31.44191067 -51.75 35.75 C-52.1625 36.1625 -52.575 36.575 -53 37 C-53.66 37 -54.32 37 -55 37 C-57.27861608 44.58293547 -57.24781658 53.40110337 -53.8125 60.5625 C-51.30934167 64.88613712 -48.56448378 68.71775811 -44 71 C-44 71.66 -44 72.32 -44 73 C-42.948125 73.268125 -41.89625 73.53625 -40.8125 73.8125 C-37.33048887 74.89706084 -35.08159239 76.13671158 -32 78 C-28.6966931 79.41206174 -25.35513494 80.71657945 -22 82 C-22 82.66 -22 83.32 -22 84 C-21.34 84.103125 -20.68 84.20625 -20 84.3125 C-16.16158991 85.19213564 -12.66903309 86.56969896 -9 88 C-9 88.66 -9 89.32 -9 90 C-6.36 90.66 -3.72 91.32 -1 92 C-1 92.66 -1 93.32 -1 94 C1.31 94.66 3.62 95.32 6 96 C6 96.66 6 97.32 6 98 C7.175625 98.4640625 7.175625 98.4640625 8.375 98.9375 C11 100 11 100 13 101 C13 101.66 13 102.32 13 103 C13.59039063 103.0928125 14.18078125 103.185625 14.7890625 103.28125 C21.46634411 105.45195639 26.641854 115.16947985 30 121 C37.70444273 136.33310405 37.92017963 154.02943768 32.68896484 170.15332031 C27.73886386 183.42141524 16.4155276 192.93130351 4 199 C-9.14867664 204.62438837 -22.21217143 206.33895463 -36.4375 206.25 C-37.67048828 206.25773438 -38.90347656 206.26546875 -40.17382812 206.2734375 C-50.84968116 206.25087891 -61.00737147 204.88873817 -71.25 201.875 C-72.30465454 201.56719604 -72.30465454 201.56719604 -73.38061523 201.25317383 C-81.37245746 198.77957191 -88.66774437 194.97698387 -96 191 C-95.49598678 186.82025404 -94.87767554 183.17094854 -93.1875 179.3125 C-91.17398493 174.54134472 -89.5650997 169.70497714 -88.02734375 164.76171875 C-86.97200395 161.92474066 -85.63389415 159.54109883 -84 157 C-80.23210287 158.38996567 -76.9785075 160.14638373 -73.5625 162.25 C-57.83376907 171.52492733 -40.9351211 177.99718417 -22.5546875 174.30859375 C-15.73777408 172.26693672 -9.72996177 169.52625632 -5.94921875 163.2578125 C-2.86177391 156.20497642 -1.91253483 147.49688168 -4.1875 140.125 C-8.38065821 129.77198106 -16.9889792 121.80528998 -27 117 C-29.26985894 116.23959428 -29.26985894 116.23959428 -31 116 C-31 115.34 -31 114.68 -31 114 C-32.32 114 -33.64 114 -35 114 C-35 113.34 -35 112.68 -35 112 C-35.65097656 111.91492188 -36.30195313 111.82984375 -36.97265625 111.7421875 C-41.07362523 110.73678865 -44.64895718 108.96166976 -48.4375 107.125 C-49.17548828 106.77308594 -49.91347656 106.42117188 -50.67382812 106.05859375 C-54.80485008 104.08304725 -58.91074674 102.06082811 -63 100 C-63 99.34 -63 98.68 -63 98 C-63.55171875 97.9175 -64.1034375 97.835 -64.671875 97.75 C-73.99693847 94.74595271 -83.25559976 83.7965112 -88.25 75.5625 C-92.50538312 66.8997558 -95.18011103 59.51022282 -95.1875 49.875 C-95.19974609 49.05773437 -95.21199219 48.24046875 -95.22460938 47.3984375 C-95.25809162 33.29125309 -90.34094768 22.54359686 -80.6875 12.375 C-60.10032795 -7.19168723 -25.79988605 -8.35973961 0 0 Z " fill="#5A70F6" transform="translate(2570,403)"/>
<path d="M0 0 C21.12 0 42.24 0 64 0 C64.02254427 26.32025897 64.04097756 52.64051017 64.05181217 78.96077633 C64.05697583 91.18080426 64.06401984 103.40082579 64.07543945 115.62084961 C64.08538417 126.2676513 64.09185292 136.91444835 64.09408849 147.56125456 C64.09539596 153.20240672 64.09848409 158.84354561 64.10573006 164.48469353 C64.11248693 169.78773424 64.11461764 175.09075613 64.11310768 180.39380074 C64.11338416 182.34618863 64.11539124 184.29857712 64.11920547 186.2509613 C64.12413754 188.90434591 64.1230001 191.55765824 64.12025452 194.21104431 C64.12316736 194.99410303 64.1260802 195.77716174 64.12908131 196.58394951 C64.11412121 201.88587879 64.11412121 201.88587879 63 203 C60.41810554 203.10091475 57.863535 203.13971499 55.28125 203.1328125 C54.12163757 203.13424759 54.12163757 203.13424759 52.93859863 203.13571167 C51.30102456 203.13639341 49.66344781 203.13453957 48.02587891 203.13037109 C45.51068079 203.12502271 42.99566127 203.13031626 40.48046875 203.13671875 C38.89322877 203.13605797 37.3059889 203.1347768 35.71875 203.1328125 C34.96146606 203.13483673 34.20418213 203.13686096 33.4239502 203.13894653 C28.11495132 203.11495132 28.11495132 203.11495132 27 202 C26.90298395 199.7850814 26.87813309 197.56700203 26.87974548 195.34996033 C26.87889106 194.6467349 26.87803663 193.94350947 26.87715632 193.21897417 C26.87549947 190.84509484 26.8810262 188.47128502 26.88647461 186.09741211 C26.88675646 184.40270489 26.88659878 182.70799755 26.8860321 181.01329041 C26.88574406 176.39778374 26.89164191 171.78230283 26.89860606 167.16680217 C26.90483844 162.34879736 26.90544331 157.53079203 26.90663147 152.71278381 C26.90974513 143.58257502 26.91795898 134.45237814 26.92798096 125.32217461 C26.93914102 114.93057324 26.94465228 104.53897132 26.94967639 94.14736545 C26.96014157 72.76490346 26.97794205 51.3824529 27 30 C18.09 30 9.18 30 0 30 C0 20.1 0 10.2 0 0 Z " fill="#5D73F6" transform="translate(1155,403)"/>
<path d="M0 0 C0.28073031 6.91837304 0.47227102 13.8352616 0.60424805 20.75805664 C0.65930115 23.10854968 0.73417301 25.45867055 0.82983398 27.80786133 C1.68942583 49.47233385 1.68942583 49.47233385 -3.74308777 55.49784851 C-6.01666908 57.57955503 -8.42585432 59.30898903 -11 61 C-12.64743473 62.28962357 -14.29355972 63.58092485 -15.9375 64.875 C-28.83829158 73.41409538 -43.14526409 76.84347199 -58.44140625 74.46484375 C-64.80670472 73.11507594 -70.44343885 71.41942224 -76 68 C-76.33 67.01 -76.66 66.02 -77 65 C-77.66 65 -78.32 65 -79 65 C-79.81837442 63.58671871 -80.62946219 62.16921654 -81.4375 60.75 C-81.88996094 59.96109375 -82.34242187 59.1721875 -82.80859375 58.359375 C-86.80076187 50.45357322 -86.22233285 38.52995163 -84.3515625 30.06640625 C-83.42048765 27.83421398 -82.37733198 25.98630072 -81 24 C-80.51402344 23.27039063 -80.02804687 22.54078125 -79.52734375 21.7890625 C-69.34851693 7.68789816 -55.65610114 -0.46341604 -38.6640625 -3.5703125 C-26.6558404 -4.97852618 -10.89113125 -5.74262302 0 0 Z " fill="#FDFEFE" transform="translate(2045,506)"/>
<path d="M0 0 C6.32841556 2.85207123 10.70272682 7.87944368 13.51953125 14.16015625 C15.35948978 19.9017136 15.02774649 25.4334227 12.34375 30.84375 C8.49656315 36.89785024 4.44991235 40.97493348 -2.41796875 43.34765625 C-9.58223072 44.26862266 -15.45899437 43.52299204 -21.41796875 39.34765625 C-26.94016196 34.64791735 -26.94016196 34.64791735 -27.41796875 30.34765625 C-28.07796875 30.34765625 -28.73796875 30.34765625 -29.41796875 30.34765625 C-31.46560031 23.0727376 -31.13678652 16.18464749 -27.7578125 9.390625 C-21.37098791 -0.34788596 -11.03963986 -2.97838426 0 0 Z " fill="#5A71F6" transform="translate(1210.41796875,326.65234375)"/>
</svg>
